<svg width="120" height="128" viewBox="0 0 120 128" fill="none" xmlns="http://www.w3.org/2000/svg">
<path d="M42.6507 16.2015C50.345 3.65 68.7295 3.65 76.4238 16.2015C79.9257 21.9141 86.127 25.4616 92.8708 25.6103C107.688 25.9371 116.88 41.7129 109.757 54.5912C106.515 60.4525 106.515 67.5475 109.757 73.4088C116.88 86.2871 107.688 102.063 92.8708 102.39C86.127 102.538 79.9257 106.086 76.4238 111.798C68.7295 124.35 50.345 124.35 42.6507 111.798C39.1488 106.086 32.9476 102.538 26.2037 102.39C11.3863 102.063 2.19403 86.2871 9.31714 73.4088C12.5591 67.5475 12.5591 60.4525 9.31714 54.5912C2.19403 41.7129 11.3863 25.9371 26.2037 25.6103C32.9476 25.4616 39.1488 21.9141 42.6507 16.2015Z" fill="#C18BAA"/>
<path d="M36.7956 12.6775C47.1577 -4.22587 71.9168 -4.22583 82.2789 12.6775C84.5666 16.4094 88.6178 18.7269 93.0233 18.8241C112.978 19.2642 125.358 40.51 115.765 57.8535C113.647 61.6825 113.647 66.3175 115.765 70.1465C125.358 87.49 112.978 108.736 93.0233 109.176C88.6178 109.273 84.5666 111.591 82.2789 115.322C71.9167 132.226 47.1577 132.226 36.7956 115.322C34.5079 111.591 30.4568 109.273 26.0512 109.176C6.09622 108.736 -6.28315 87.49 3.3097 70.1465C5.42756 66.3175 5.42756 61.6825 3.3097 57.8535C-6.28315 40.51 6.09623 19.2642 26.0512 18.8241C30.4568 18.7269 34.5079 16.4094 36.7956 12.6775ZM76.4238 16.2015C68.7295 3.65 50.345 3.65 42.6507 16.2015C39.1488 21.9141 32.9476 25.4616 26.2037 25.6103C11.3863 25.9371 2.19403 41.7129 9.31714 54.5912C12.5591 60.4525 12.5591 67.5475 9.31714 73.4088L9.15339 73.7111C2.33813 86.5326 11.502 102.065 26.2037 102.39C32.9476 102.538 39.1488 106.086 42.6507 111.798C50.2849 124.252 68.443 124.349 76.2416 112.09L76.4238 111.798C79.871 106.175 85.9338 102.65 92.555 102.399L92.8708 102.39C107.572 102.065 116.737 86.5326 109.921 73.7111L109.757 73.4088C106.566 67.6392 106.516 60.6739 109.608 54.8669L109.757 54.5912C116.88 41.7129 107.688 25.9371 92.8708 25.6103C86.127 25.4616 79.9257 21.9141 76.4238 16.2015Z" fill="#EDE7AD"/>
<path d="M44.0475 77.066C42.5295 77.066 41.3305 76.329 40.4505 74.855C39.5925 73.381 39.0865 71.445 38.9325 69.047C38.7565 66.077 39.0755 63.459 39.8895 61.193C40.7255 58.905 41.9795 57.123 43.6515 55.847C45.3235 54.571 47.3145 53.933 49.6245 53.933C51.9565 53.933 53.9475 54.571 55.5975 55.847C57.2695 57.123 58.5125 58.894 59.3265 61.16C60.1625 63.426 60.4815 66.055 60.2835 69.047C60.1295 71.511 59.6125 73.458 58.7325 74.888C57.8745 76.318 56.6865 77.033 55.1685 77.033C54.3105 77.033 53.6505 76.879 53.1885 76.571C52.7265 76.241 52.3965 75.834 52.1985 75.35C52.0225 74.844 51.9345 74.338 51.9345 73.832C51.9345 73.304 51.9675 72.853 52.0335 72.479C51.3295 72.501 50.5045 72.523 49.5585 72.545C48.6125 72.545 47.8205 72.523 47.1825 72.479C47.2485 72.853 47.2815 73.304 47.2815 73.832C47.2815 74.338 47.1825 74.844 46.9845 75.35C46.8085 75.834 46.4895 76.241 46.0275 76.571C45.5655 76.901 44.9055 77.066 44.0475 77.066ZM46.9515 66.605C48.6895 66.539 50.4275 66.539 52.1655 66.605C52.2755 65.835 52.2645 65.098 52.1325 64.394C52.0005 63.69 51.7255 63.118 51.3075 62.678C50.8895 62.238 50.2955 62.018 49.5255 62.018C48.7555 62.018 48.1615 62.238 47.7435 62.678C47.3475 63.118 47.0835 63.69 46.9515 64.394C46.8415 65.076 46.8415 65.813 46.9515 66.605Z" fill="#EEF1CA"/>
<path d="M65.8347 76.934C64.7127 76.934 63.8767 76.516 63.3267 75.68C62.7767 74.822 62.4137 73.546 62.2377 71.852C62.0617 70.136 61.9737 67.991 61.9737 65.417C61.9737 63.723 61.9957 62.172 62.0397 60.764C62.1057 59.356 62.2597 58.146 62.5017 57.134C62.7437 56.1 63.1287 55.308 63.6567 54.758C64.1847 54.186 64.9217 53.9 65.8677 53.9C66.8137 53.9 67.5507 54.186 68.0787 54.758C68.6067 55.308 68.9917 56.1 69.2337 57.134C69.4757 58.146 69.6187 59.356 69.6627 60.764C69.7287 62.172 69.7617 63.723 69.7617 65.417C69.7617 69.289 69.4867 72.182 68.9367 74.096C68.4087 75.988 67.3747 76.934 65.8347 76.934Z" fill="#EEF1CA"/>
<path d="M75.2771 76.934C74.1551 76.934 73.3191 76.516 72.7691 75.68C72.2191 74.822 71.8561 73.546 71.6801 71.852C71.5041 70.136 71.4161 67.991 71.4161 65.417C71.4161 63.723 71.4381 62.172 71.4821 60.764C71.5481 59.356 71.7021 58.146 71.9441 57.134C72.1861 56.1 72.5711 55.308 73.0991 54.758C73.6271 54.186 74.3641 53.9 75.3101 53.9C76.2561 53.9 76.9931 54.186 77.5211 54.758C78.0491 55.308 78.4341 56.1 78.6761 57.134C78.9181 58.146 79.0611 59.356 79.1051 60.764C79.1711 62.172 79.2041 63.723 79.2041 65.417C79.2041 69.289 78.9291 72.182 78.3791 74.096C77.8511 75.988 76.8171 76.934 75.2771 76.934Z" fill="#EEF1CA"/>
</svg>
