<svg width="120" height="128" viewBox="0 0 120 128" fill="none" xmlns="http://www.w3.org/2000/svg">
<path d="M42.6507 16.2015C50.3451 3.65 68.7296 3.65 76.4239 16.2015C79.9258 21.9141 86.1271 25.4616 92.8709 25.6103C107.688 25.9371 116.881 41.7129 109.757 54.5912C106.516 60.4525 106.516 67.5475 109.757 73.4088C116.881 86.2871 107.688 102.063 92.8709 102.39C86.1271 102.538 79.9258 106.086 76.4239 111.798C68.7296 124.35 50.3451 124.35 42.6507 111.798C39.1488 106.086 32.9476 102.538 26.2038 102.39C11.3863 102.063 2.19407 86.2871 9.31718 73.4088C12.5591 67.5475 12.5591 60.4525 9.31718 54.5912C2.19407 41.7129 11.3863 25.9371 26.2038 25.6103C32.9476 25.4616 39.1488 21.9141 42.6507 16.2015Z" fill="#BFB947"/>
<path d="M36.7956 12.6775C47.1577 -4.22587 71.9168 -4.22583 82.2789 12.6775C84.5666 16.4094 88.6178 18.7269 93.0233 18.8241C112.978 19.2642 125.358 40.51 115.765 57.8535C113.647 61.6825 113.647 66.3175 115.765 70.1465C125.358 87.49 112.978 108.736 93.0233 109.176C88.6178 109.273 84.5666 111.591 82.2789 115.322C71.9168 132.226 47.1577 132.226 36.7956 115.322C34.5079 111.591 30.4567 109.273 26.0512 109.176C6.0962 108.736 -6.28315 87.49 3.3097 70.1465C5.42756 66.3175 5.42756 61.6825 3.3097 57.8535C-6.28315 40.51 6.0962 19.2642 26.0512 18.8241C30.4567 18.7269 34.5079 16.4094 36.7956 12.6775ZM76.4239 16.2015C68.7296 3.65 50.3451 3.65 42.6507 16.2015C39.1488 21.9141 32.9476 25.4616 26.2038 25.6103C11.3863 25.9371 2.19407 41.7129 9.31718 54.5912C12.5591 60.4525 12.5591 67.5475 9.31718 73.4088L9.15336 73.7111C2.33811 86.5326 11.5021 102.065 26.2038 102.39C32.9476 102.538 39.1488 106.086 42.6507 111.798C50.285 124.252 68.443 124.349 76.2416 112.09L76.4239 111.798C79.8711 106.175 85.9338 102.65 92.555 102.399L92.8709 102.39C107.573 102.065 116.737 86.5326 109.921 73.7111L109.757 73.4088C106.566 67.6392 106.516 60.6739 109.608 54.8669L109.757 54.5912C116.881 41.7129 107.688 25.9371 92.8709 25.6103C86.1271 25.4616 79.9258 21.9141 76.4239 16.2015Z" fill="#EDE7AD"/>
<path d="M42.9014 76.967C41.1194 76.967 39.6124 76.648 38.3804 76.01C37.1704 75.35 36.1914 74.492 35.4434 73.436C34.7174 72.38 34.1894 71.225 33.8594 69.971C33.5294 68.717 33.3644 67.474 33.3644 66.242C33.3644 63.712 33.8484 61.534 34.8164 59.708C35.7844 57.86 37.0934 56.43 38.7434 55.418C40.4154 54.406 42.3074 53.9 44.4194 53.9C46.0034 53.9 47.2354 54.054 48.1154 54.362C48.9954 54.648 49.6114 55.022 49.9634 55.484C50.3374 55.924 50.5244 56.397 50.5244 56.903C50.5244 57.519 50.2714 58.091 49.7654 58.619C49.2594 59.147 48.4894 59.411 47.4554 59.411C46.3994 59.411 45.3654 59.488 44.3534 59.642C43.3414 59.796 42.4284 60.104 41.6144 60.566C40.8224 61.028 40.1954 61.721 39.7334 62.645C40.0854 62.403 40.5144 62.194 41.0204 62.018C41.5264 61.842 42.0324 61.71 42.5384 61.622C43.0664 61.534 43.5064 61.49 43.8584 61.49C45.4864 61.49 46.8614 61.809 47.9834 62.447C49.1274 63.085 49.9964 63.965 50.5904 65.087C51.2064 66.209 51.5144 67.496 51.5144 68.948C51.5144 70.532 51.1294 71.929 50.3594 73.139C49.6114 74.327 48.5884 75.262 47.2904 75.944C45.9924 76.626 44.5294 76.967 42.9014 76.967ZM43.0994 71.918C43.8034 71.918 44.4084 71.665 44.9144 71.159C45.4204 70.631 45.6734 70.026 45.6734 69.344C45.6734 68.64 45.4204 68.035 44.9144 67.529C44.4084 67.023 43.8034 66.77 43.0994 66.77C42.4174 66.77 41.8124 67.023 41.2844 67.529C40.7784 68.035 40.5254 68.64 40.5254 69.344C40.5254 70.026 40.7784 70.631 41.2844 71.159C41.8124 71.665 42.4174 71.918 43.0994 71.918Z" fill="#EEF3C2"/>
<path d="M59.6855 70.928C59.0255 70.928 58.3325 70.917 57.6065 70.895C56.9025 70.873 56.2535 70.796 55.6595 70.664C55.0655 70.532 54.5815 70.301 54.2075 69.971C53.8335 69.619 53.6465 69.113 53.6465 68.453C53.6465 67.793 53.8335 67.298 54.2075 66.968C54.5815 66.616 55.0655 66.374 55.6595 66.242C56.2535 66.088 56.9025 66 57.6065 65.978C58.3325 65.956 59.0255 65.945 59.6855 65.945C60.3675 65.945 61.0605 65.956 61.7645 65.978C62.4685 66 63.1175 66.088 63.7115 66.242C64.3275 66.374 64.8225 66.616 65.1965 66.968C65.5705 67.298 65.7575 67.793 65.7575 68.453C65.7575 69.113 65.5705 69.619 65.1965 69.971C64.8225 70.301 64.3275 70.532 63.7115 70.664C63.1175 70.796 62.4685 70.873 61.7645 70.895C61.0605 70.917 60.3675 70.928 59.6855 70.928Z" fill="#EEF3C2"/>
<path d="M74.7422 76.868C74.3242 76.868 73.8402 76.824 73.2902 76.736C72.7622 76.626 72.2782 76.428 71.8382 76.142C71.3982 75.834 71.1342 75.383 71.0462 74.789C70.9582 73.931 71.1342 73.293 71.5742 72.875C72.0142 72.457 72.6632 72.237 73.5212 72.215C74.3352 72.127 75.0722 71.929 75.7322 71.621C76.3922 71.291 76.8872 70.752 77.2172 70.004C75.5672 70.114 74.0382 69.949 72.6302 69.509C71.2222 69.047 70.0782 68.244 69.1982 67.1C68.3402 65.956 67.9112 64.438 67.9112 62.546C67.9112 60.808 68.2632 59.301 68.9672 58.025C69.6932 56.727 70.6832 55.715 71.9372 54.989C73.2132 54.263 74.6542 53.9 76.2602 53.9C78.0202 53.9 79.4612 54.23 80.5832 54.89C81.7272 55.55 82.6182 56.419 83.2562 57.497C83.9162 58.575 84.3782 59.763 84.6422 61.061C84.9062 62.337 85.0382 63.602 85.0382 64.856C85.0382 66.396 84.7632 67.892 84.2132 69.344C83.6632 70.774 82.9042 72.061 81.9362 73.205C80.9902 74.327 79.9012 75.218 78.6692 75.878C77.4372 76.538 76.1282 76.868 74.7422 76.868ZM76.2602 65.219C76.9642 65.219 77.5692 64.966 78.0752 64.46C78.6032 63.932 78.8672 63.327 78.8672 62.645C78.8672 61.941 78.6032 61.336 78.0752 60.83C77.5692 60.302 76.9642 60.038 76.2602 60.038C75.5782 60.038 74.9732 60.302 74.4452 60.83C73.9392 61.336 73.6862 61.941 73.6862 62.645C73.6862 63.327 73.9392 63.932 74.4452 64.46C74.9732 64.966 75.5782 65.219 76.2602 65.219Z" fill="#EEF3C2"/>
</svg>
