<svg width="120" height="128" viewBox="0 0 120 128" fill="none" xmlns="http://www.w3.org/2000/svg">
<path d="M42.6507 16.2015C50.345 3.65 68.7296 3.65 76.4239 16.2015C79.9258 21.9141 86.127 25.4616 92.8708 25.6103C107.688 25.9371 116.88 41.7129 109.757 54.5912C106.515 60.4525 106.515 67.5475 109.757 73.4088C116.88 86.2871 107.688 102.063 92.8708 102.39C86.127 102.538 79.9258 106.086 76.4239 111.798C68.7296 124.35 50.345 124.35 42.6507 111.798C39.1488 106.086 32.9476 102.538 26.2038 102.39C11.3863 102.063 2.19404 86.2871 9.31715 73.4088C12.5591 67.5475 12.5591 60.4525 9.31715 54.5912C2.19404 41.7129 11.3863 25.9371 26.2038 25.6103C32.9476 25.4616 39.1488 21.9141 42.6507 16.2015Z" fill="#5DD48D"/>
<path d="M36.7956 12.6775C47.1578 -4.22587 71.9168 -4.22583 82.2789 12.6775C84.5666 16.4094 88.6178 18.7269 93.0233 18.8241C112.978 19.2642 125.358 40.51 115.765 57.8535C113.647 61.6825 113.647 66.3175 115.765 70.1465C125.358 87.49 112.978 108.736 93.0233 109.176C88.6178 109.273 84.5666 111.591 82.2789 115.322C71.9168 132.226 47.1577 132.226 36.7956 115.322C34.5079 111.591 30.4567 109.273 26.0512 109.176C6.0962 108.736 -6.28315 87.49 3.3097 70.1465C5.42756 66.3175 5.42756 61.6825 3.3097 57.8535C-6.28315 40.51 6.0962 19.2642 26.0512 18.8241C30.4567 18.7269 34.5079 16.4094 36.7956 12.6775ZM76.4239 16.2015C68.7296 3.65 50.345 3.65 42.6507 16.2015C39.1488 21.9141 32.9476 25.4616 26.2038 25.6103C11.3863 25.9371 2.19404 41.7129 9.31715 54.5912C12.5591 60.4525 12.5591 67.5475 9.31715 73.4088L9.15339 73.7111C2.33814 86.5326 11.5021 102.065 26.2038 102.39C32.9476 102.538 39.1488 106.086 42.6507 111.798C50.2849 124.252 68.443 124.349 76.2416 112.09L76.4239 111.798C79.8711 106.175 85.9338 102.65 92.555 102.399L92.8708 102.39C107.572 102.065 116.737 86.5326 109.921 73.7111L109.757 73.4088C106.566 67.6392 106.516 60.6739 109.608 54.8669L109.757 54.5912C116.88 41.7129 107.688 25.9371 92.8708 25.6103C86.127 25.4616 79.9258 21.9141 76.4239 16.2015Z" fill="#EDE7AD"/>
<path d="M40.5464 76.934C39.5124 76.934 38.5114 76.934 37.5434 76.934C36.5974 76.934 35.7394 76.868 34.9694 76.736C34.2214 76.582 33.6274 76.296 33.1874 75.878C32.7474 75.46 32.5274 74.844 32.5274 74.03C32.5274 73.172 32.7584 72.523 33.2204 72.083C33.7044 71.621 34.3424 71.302 35.1344 71.126C35.9484 70.95 36.8614 70.84 37.8734 70.796C37.8734 69.41 37.8624 68.222 37.8404 67.232C37.8184 66.22 37.7964 65.285 37.7744 64.427C37.7744 63.547 37.7744 62.634 37.7744 61.688C37.1804 61.776 36.5534 61.798 35.8934 61.754C35.2334 61.71 34.6174 61.589 34.0454 61.391C33.4954 61.171 33.0334 60.852 32.6594 60.434C32.3074 59.994 32.1314 59.433 32.1314 58.751C32.1314 57.893 32.4834 57.101 33.1874 56.375C33.9134 55.627 34.8704 55.033 36.0584 54.593C37.2464 54.131 38.5224 53.9 39.8864 53.9C41.2504 53.9 42.3614 54.318 43.2194 55.154C44.0774 55.968 44.5064 57.178 44.5064 58.784V70.895C45.6944 71.005 46.6624 71.28 47.4104 71.72C48.1804 72.16 48.5654 72.93 48.5654 74.03C48.5654 74.844 48.3454 75.46 47.9054 75.878C47.4654 76.296 46.8604 76.582 46.0904 76.736C45.3424 76.868 44.4844 76.934 43.5164 76.934C42.5704 76.934 41.5804 76.934 40.5464 76.934Z" fill="#E9F4C8"/>
<path d="M59.8795 77C58.4055 77 57.0745 76.703 55.8865 76.109C54.6985 75.515 53.6755 74.69 52.8175 73.634C51.9815 72.556 51.3325 71.324 50.8705 69.938C50.4305 68.53 50.2105 67.034 50.2105 65.45C50.2105 63.954 50.4305 62.524 50.8705 61.16C51.3105 59.774 51.9485 58.542 52.7845 57.464C53.6425 56.364 54.6655 55.495 55.8535 54.857C57.0415 54.219 58.3835 53.9 59.8795 53.9C61.8375 53.9 63.5425 54.417 64.9945 55.451C66.4465 56.463 67.5685 57.838 68.3605 59.576C69.1745 61.314 69.5815 63.272 69.5815 65.45C69.5815 66.902 69.3505 68.321 68.8885 69.707C68.4485 71.071 67.7995 72.303 66.9415 73.403C66.1055 74.503 65.0935 75.383 63.9055 76.043C62.7175 76.681 61.3755 77 59.8795 77ZM59.8795 70.829C60.7375 70.829 61.4195 70.587 61.9255 70.103C62.4535 69.619 62.8385 68.992 63.0805 68.222C63.3225 67.452 63.4435 66.638 63.4435 65.78C63.4435 64.922 63.3225 64.119 63.0805 63.371C62.8605 62.601 62.4865 61.985 61.9585 61.523C61.4305 61.039 60.7375 60.797 59.8795 60.797C59.0215 60.797 58.3285 61.039 57.8005 61.523C57.2945 61.985 56.9205 62.601 56.6785 63.371C56.4365 64.119 56.3155 64.922 56.3155 65.78C56.3155 66.462 56.4255 67.199 56.6455 67.991C56.8875 68.761 57.2615 69.432 57.7675 70.004C58.2955 70.554 58.9995 70.829 59.8795 70.829Z" fill="#E9F4C8"/>
<path d="M88.7782 67.859C88.7782 68.607 88.5252 69.157 88.0192 69.509C87.5352 69.839 86.8422 70.048 85.9402 70.136C85.0382 70.224 83.9712 70.268 82.7392 70.268C82.7172 71.5 82.6402 72.567 82.5082 73.469C82.3982 74.371 82.1562 75.075 81.7822 75.581C81.4302 76.065 80.8912 76.307 80.1652 76.307C79.4172 76.307 78.8672 76.065 78.5152 75.581C78.1852 75.097 77.9762 74.404 77.8882 73.502C77.8002 72.6 77.7562 71.522 77.7562 70.268C76.5022 70.268 75.4242 70.224 74.5222 70.136C73.6202 70.026 72.9272 69.806 72.4432 69.476C71.9592 69.124 71.7172 68.585 71.7172 67.859C71.7172 66.781 72.2452 66.099 73.3012 65.813C74.3792 65.505 75.8642 65.329 77.7562 65.285C77.7562 64.031 77.8002 62.953 77.8882 62.051C77.9982 61.149 78.2182 60.456 78.5482 59.972C78.9002 59.488 79.4392 59.246 80.1652 59.246C81.2432 59.246 81.9252 59.785 82.2112 60.863C82.5192 61.941 82.6952 63.415 82.7392 65.285C83.9712 65.307 85.0382 65.384 85.9402 65.516C86.8422 65.626 87.5352 65.868 88.0192 66.242C88.5252 66.594 88.7782 67.133 88.7782 67.859Z" fill="#E9F4C8"/>
</svg>
