<svg width="128" height="136" viewBox="0 0 128 136" fill="none" xmlns="http://www.w3.org/2000/svg">
<g filter="url(#filter0_d_26_44)">
<path d="M46.6507 16.2015C54.3451 3.65 72.7296 3.65 80.4239 16.2015C83.9258 21.9141 90.1271 25.4616 96.8709 25.6103C111.688 25.9371 120.881 41.7129 113.757 54.5912C110.516 60.4525 110.516 67.5475 113.757 73.4088C120.881 86.2871 111.688 102.063 96.8709 102.39C90.1271 102.538 83.9258 106.086 80.4239 111.798C72.7296 124.35 54.3451 124.35 46.6507 111.798C43.1488 106.086 36.9476 102.538 30.2038 102.39C15.3863 102.063 6.19407 86.2871 13.3172 73.4088C16.5591 67.5475 16.5591 60.4525 13.3172 54.5912C6.19407 41.7129 15.3863 25.9371 30.2038 25.6103C36.9476 25.4616 43.1488 21.9141 46.6507 16.2015Z" fill="#BFB947"/>
<path d="M40.7956 12.6775C51.1577 -4.22587 75.9168 -4.22583 86.2789 12.6775C88.5666 16.4094 92.6178 18.7269 97.0233 18.8241C116.978 19.2642 129.358 40.51 119.765 57.8535C117.647 61.6825 117.647 66.3175 119.765 70.1465C129.358 87.49 116.978 108.736 97.0233 109.176C92.6178 109.273 88.5666 111.591 86.2789 115.322C75.9168 132.226 51.1577 132.226 40.7956 115.322C38.5079 111.591 34.4567 109.273 30.0512 109.176C10.0962 108.736 -2.28314 87.49 7.3097 70.1465C9.42756 66.3175 9.42756 61.6825 7.3097 57.8535C-2.28314 40.51 10.0962 19.2642 30.0512 18.8241C34.4567 18.7269 38.5079 16.4094 40.7956 12.6775ZM80.4239 16.2015C72.7296 3.65 54.3451 3.65 46.6507 16.2015C43.1488 21.9141 36.9476 25.4616 30.2038 25.6103C15.3863 25.9371 6.19407 41.7129 13.3172 54.5912C16.5591 60.4525 16.5591 67.5475 13.3172 73.4088L13.1534 73.7111C6.33811 86.5326 15.5021 102.065 30.2038 102.39C36.9476 102.538 43.1488 106.086 46.6507 111.798C54.285 124.252 72.443 124.349 80.2416 112.09L80.4239 111.798C83.8711 106.175 89.9338 102.65 96.555 102.399L96.8709 102.39C111.573 102.065 120.737 86.5326 113.921 73.7111L113.757 73.4088C110.566 67.6392 110.516 60.6739 113.608 54.8669L113.757 54.5912C120.881 41.7129 111.688 25.9371 96.8709 25.6103C90.1271 25.4616 83.9258 21.9141 80.4239 16.2015Z" fill="#EDE7AD"/>
<path d="M86.4328 53.713C86.8493 53.713 87.0576 54.6144 87.0576 56.4172C87.0576 56.982 87.0028 57.6553 86.8932 58.4373C86.8055 59.1975 86.6301 59.5777 86.3671 59.5777H79.955L79.9221 61.9561H81.0072C83.3528 61.9561 85.0956 62.6295 86.2355 63.9762C87.3974 65.3229 87.9783 67.104 87.9783 69.3196C87.9783 71.5351 87.1891 73.3488 85.6108 74.7607C84.0324 76.1509 82.0046 76.8459 79.5275 76.8459C77.0504 76.8459 75.2418 76.4984 74.1019 75.8033C73.9265 75.5209 73.8388 75.0865 73.8388 74.5C73.8388 73.8919 73.9265 73.0447 74.1019 71.9587C74.2773 70.8509 74.5184 70.297 74.8253 70.297C74.8472 70.297 74.913 70.3405 75.0226 70.4273C76.5791 71.0573 77.7628 71.3722 78.5739 71.3722C79.4069 71.3722 80.0865 71.155 80.6126 70.7206C81.1607 70.2644 81.4347 69.6888 81.4347 68.9938C81.4347 67.2561 80.492 66.3872 78.6068 66.3872L75.7789 66.4198C75.5597 66.4632 75.3405 66.3764 75.1213 66.1591C74.902 65.9202 74.7924 65.6161 74.7924 65.2469V55.0488C74.7924 54.1582 75.1213 53.713 75.7789 53.713H86.4328Z" fill="#EEF3C2"/>
<path d="M70.2418 70.3296H57.2532C56.8586 70.3296 56.5737 70.0146 56.3983 69.3847C56.3106 69.0589 56.2667 68.744 56.2667 68.4399C56.2667 68.1358 56.3106 67.8208 56.3983 67.495C56.5737 66.8651 56.8586 66.5501 57.2532 66.5501H70.2418C70.6364 66.5501 70.9214 66.8651 71.0967 67.495C71.1844 67.8208 71.2283 68.1358 71.2283 68.4399C71.2283 68.744 71.1844 69.0589 71.0967 69.3847C70.9214 70.0146 70.6364 70.3296 70.2418 70.3296Z" fill="#EEF3C2"/>
<path d="M38.401 74.3697C38.401 73.7615 38.5545 73.0773 38.8614 72.3171C39.1683 71.5351 39.4643 70.9161 39.7492 70.4599C40.0342 69.9821 40.1986 69.7431 40.2425 69.7431C41.5139 70.5034 42.8511 70.8835 44.2541 70.8835C45.131 70.8835 45.8325 70.7097 46.3586 70.3622C46.9067 70.0146 47.1807 69.5368 47.1807 68.9286C47.1807 68.2987 46.9286 67.8968 46.4244 67.7231C45.9421 67.5493 45.1639 67.4298 44.0897 67.3647H42.906C42.6429 67.3647 42.3908 67.0497 42.1496 66.4198C41.9304 65.7682 41.8208 65.1383 41.8208 64.5301C41.8208 63.5092 42.1277 62.9879 42.7415 62.9661L43.6951 62.9336C44.287 62.9336 44.9008 62.7707 45.5365 62.4448C46.1942 62.0973 46.523 61.6629 46.523 61.1416C46.523 60.2293 45.701 59.7731 44.0568 59.7731C42.8292 59.7731 41.6455 60.0121 40.5055 60.4899C39.5191 58.7305 39.0258 57.3621 39.0258 56.3847C39.0258 55.3855 39.7163 54.6361 41.0974 54.1365C42.5004 53.6369 44.2541 53.3871 46.3586 53.3871C48.4631 53.3871 50.1072 53.8216 51.291 54.6904C52.4747 55.5593 53.0666 56.7431 53.0666 58.2418C53.0666 60.8701 51.9267 62.8901 49.6469 64.302C52.409 65.4098 53.79 67.2886 53.79 69.9386C53.79 72.0021 53.0557 73.6746 51.5869 74.9562C50.1182 76.216 48.0137 76.8459 45.2735 76.8459C43.5417 76.8459 41.9633 76.607 40.5384 76.1291C39.1135 75.6295 38.401 75.0431 38.401 74.3697Z" fill="#EEF3C2"/>
</g>
<defs>
<filter id="filter0_d_26_44" x="0" y="0" width="127.075" height="136" filterUnits="userSpaceOnUse" color-interpolation-filters="sRGB">
<feFlood flood-opacity="0" result="BackgroundImageFix"/>
<feColorMatrix in="SourceAlpha" type="matrix" values="0 0 0 0 0 0 0 0 0 0 0 0 0 0 0 0 0 0 127 0" result="hardAlpha"/>
<feOffset dy="4"/>
<feGaussianBlur stdDeviation="2"/>
<feComposite in2="hardAlpha" operator="out"/>
<feColorMatrix type="matrix" values="0 0 0 0 0 0 0 0 0 0 0 0 0 0 0 0 0 0 0.25 0"/>
<feBlend mode="normal" in2="BackgroundImageFix" result="effect1_dropShadow_26_44"/>
<feBlend mode="normal" in="SourceGraphic" in2="effect1_dropShadow_26_44" result="shape"/>
</filter>
</defs>
</svg>
