<svg width="128" height="136" viewBox="0 0 128 136" fill="none" xmlns="http://www.w3.org/2000/svg">
<g filter="url(#filter0_d_26_46)">
<path d="M46.6507 16.2015C54.345 3.65 72.7296 3.65 80.4239 16.2015C83.9258 21.9141 90.127 25.4616 96.8708 25.6103C111.688 25.9371 120.88 41.7129 113.757 54.5912C110.515 60.4525 110.515 67.5475 113.757 73.4088C120.88 86.2871 111.688 102.063 96.8708 102.39C90.127 102.538 83.9258 106.086 80.4239 111.798C72.7296 124.35 54.345 124.35 46.6507 111.798C43.1488 106.086 36.9476 102.538 30.2038 102.39C15.3863 102.063 6.19404 86.2871 13.3171 73.4088C16.5591 67.5475 16.5591 60.4525 13.3171 54.5912C6.19404 41.7129 15.3863 25.9371 30.2038 25.6103C36.9476 25.4616 43.1488 21.9141 46.6507 16.2015Z" fill="#5DD48D"/>
<path d="M40.7956 12.6775C51.1578 -4.22587 75.9168 -4.22583 86.2789 12.6775C88.5666 16.4094 92.6178 18.7269 97.0233 18.8241C116.978 19.2642 129.358 40.51 119.765 57.8535C117.647 61.6825 117.647 66.3175 119.765 70.1465C129.358 87.49 116.978 108.736 97.0233 109.176C92.6178 109.273 88.5666 111.591 86.2789 115.322C75.9168 132.226 51.1577 132.226 40.7956 115.322C38.5079 111.591 34.4567 109.273 30.0512 109.176C10.0962 108.736 -2.28314 87.49 7.3097 70.1465C9.42756 66.3175 9.42756 61.6825 7.3097 57.8535C-2.28314 40.51 10.0962 19.2642 30.0512 18.8241C34.4567 18.7269 38.5079 16.4094 40.7956 12.6775ZM80.4239 16.2015C72.7296 3.65 54.345 3.65 46.6507 16.2015C43.1488 21.9141 36.9476 25.4616 30.2038 25.6103C15.3863 25.9371 6.19404 41.7129 13.3171 54.5912C16.5591 60.4525 16.5591 67.5475 13.3171 73.4088L13.1534 73.7111C6.33814 86.5326 15.5021 102.065 30.2038 102.39C36.9476 102.538 43.1488 106.086 46.6507 111.798C54.2849 124.252 72.443 124.349 80.2416 112.09L80.4239 111.798C83.8711 106.175 89.9338 102.65 96.555 102.399L96.8708 102.39C111.572 102.065 120.737 86.5326 113.921 73.7111L113.757 73.4088C110.566 67.6392 110.516 60.6739 113.608 54.8669L113.757 54.5912C120.88 41.7129 111.688 25.9371 96.8708 25.6103C90.127 25.4616 83.9258 21.9141 80.4239 16.2015Z" fill="#EDE7AD"/>
<path d="M88.433 77.1718C85.6928 77.1718 83.4459 76.1726 81.6922 74.1742C79.9604 72.1759 79.0945 69.2544 79.0945 65.4098C79.0945 61.5651 79.9713 58.6654 81.725 56.7105C83.4788 54.7339 85.7367 53.7455 88.4988 53.7455C91.2829 53.7455 93.5299 54.723 95.2397 56.6779C96.9496 58.6328 97.8046 61.576 97.8046 65.5075C97.8046 69.439 96.9277 72.3714 95.174 74.3046C93.4422 76.216 91.1952 77.1718 88.433 77.1718ZM88.433 60.0012C87.6 60.0012 86.8876 60.4791 86.2957 61.4348C85.7258 62.3688 85.4408 63.7047 85.4408 65.4424C85.4408 67.18 85.7148 68.5159 86.2629 69.4499C86.8328 70.3622 87.5562 70.8183 88.433 70.8183C89.3318 70.8183 90.0553 70.3513 90.6033 69.4173C91.1733 68.4833 91.4583 67.1475 91.4583 65.4098C91.4583 63.6721 91.1623 62.3362 90.5704 61.4022C90.0005 60.4682 89.288 60.0012 88.433 60.0012Z" fill="#E9F4C8"/>
<path d="M76.2913 76.2921C76.2913 76.6613 75.1733 76.8459 72.9373 76.8459C70.7232 76.8459 69.6161 76.6613 69.6161 76.2921V60.2293L66.0648 60.2619C65.4072 60.2619 65.0784 59.2193 65.0784 57.134C65.0784 56.4173 65.1441 55.7222 65.2756 55.0488C65.4291 54.3755 65.6812 54.0388 66.0319 54.0388H75.0418C75.4144 54.0388 75.7104 54.1257 75.9296 54.2994C76.1707 54.4515 76.2913 54.647 76.2913 54.8859V76.2921Z" fill="#E9F4C8"/>
<path d="M62.4349 70.6554H49.4463C49.0517 70.6554 48.7667 70.3405 48.5913 69.7106C48.5036 69.3847 48.4598 69.0698 48.4598 68.7657C48.4598 68.4616 48.5036 68.1466 48.5913 67.8208C48.7667 67.1909 49.0517 66.8759 49.4463 66.8759H62.4349C62.8295 66.8759 63.1145 67.1909 63.2899 67.8208C63.3775 68.1466 63.4213 68.4616 63.4213 68.7657C63.4213 69.0698 63.3775 69.3847 63.2899 69.7106C63.1145 70.3405 62.8295 70.6554 62.4349 70.6554Z" fill="#E9F4C8"/>
<path d="M42.4359 60.2945C41.559 59.8166 40.5397 59.5777 39.3778 59.5777C37.3391 59.5777 36.1773 60.8809 35.8923 63.4875C37.0322 63.1616 38.2489 62.9987 39.5422 62.9987C41.7563 62.9987 43.3785 63.5743 44.4089 64.7256C45.4611 65.8551 45.9872 67.4081 45.9872 69.3847C45.9872 71.7741 45.2419 73.6746 43.7512 75.0865C42.2605 76.4767 40.2438 77.1718 37.7008 77.1718C35.1579 77.1718 33.1631 76.2595 31.7162 74.4349C30.2694 72.5886 29.546 69.9712 29.546 66.5827C29.546 62.6295 30.4448 59.5016 32.2423 57.1992C34.0618 54.875 36.4184 53.713 39.3121 53.713C42.6003 53.713 44.2445 54.3755 44.2445 55.7004C44.2445 56.6562 43.9375 57.6771 43.3237 58.7631C43.1045 59.241 42.8086 59.7514 42.4359 60.2945ZM40.2986 69.4173C40.2986 68.744 40.0903 68.2009 39.6738 67.7882C39.2573 67.3538 38.6216 67.1366 37.7666 67.1366C36.9336 67.1366 36.2978 67.2886 35.8594 67.5927C35.8375 67.8751 35.8265 68.1901 35.8265 68.5376C35.8265 68.8852 35.8594 69.3196 35.9252 69.8409C36.0129 70.3405 36.2321 70.84 36.5828 71.3396C36.9555 71.8175 37.4378 72.0564 38.0296 72.0564C39.5422 72.0564 40.2986 71.1767 40.2986 69.4173Z" fill="#E9F4C8"/>
</g>
<defs>
<filter id="filter0_d_26_46" x="0" y="0" width="127.074" height="136" filterUnits="userSpaceOnUse" color-interpolation-filters="sRGB">
<feFlood flood-opacity="0" result="BackgroundImageFix"/>
<feColorMatrix in="SourceAlpha" type="matrix" values="0 0 0 0 0 0 0 0 0 0 0 0 0 0 0 0 0 0 127 0" result="hardAlpha"/>
<feOffset dy="4"/>
<feGaussianBlur stdDeviation="2"/>
<feComposite in2="hardAlpha" operator="out"/>
<feColorMatrix type="matrix" values="0 0 0 0 0 0 0 0 0 0 0 0 0 0 0 0 0 0 0.25 0"/>
<feBlend mode="normal" in2="BackgroundImageFix" result="effect1_dropShadow_26_46"/>
<feBlend mode="normal" in="SourceGraphic" in2="effect1_dropShadow_26_46" result="shape"/>
</filter>
</defs>
</svg>
