<svg width="128" height="136" viewBox="0 0 128 136" fill="none" xmlns="http://www.w3.org/2000/svg">
<g filter="url(#filter0_d_26_42)">
<path d="M46.6507 16.2015C54.345 3.65 72.7296 3.65 80.4239 16.2015C83.9258 21.9141 90.127 25.4616 96.8708 25.6103C111.688 25.9371 120.881 41.7129 113.757 54.5912C110.515 60.4525 110.515 67.5475 113.757 73.4088C120.881 86.2871 111.688 102.063 96.8708 102.39C90.127 102.538 83.9258 106.086 80.4239 111.798C72.7296 124.35 54.345 124.35 46.6507 111.798C43.1488 106.086 36.9476 102.538 30.2038 102.39C15.3863 102.063 6.19407 86.2871 13.3172 73.4088C16.5591 67.5475 16.5591 60.4525 13.3172 54.5912C6.19407 41.7129 15.3863 25.9371 30.2038 25.6103C36.9476 25.4616 43.1488 21.9141 46.6507 16.2015Z" fill="#F6877F"/>
<path d="M40.7956 12.6775C51.1577 -4.22587 75.9167 -4.22583 86.2789 12.6775C88.5666 16.4094 92.6177 18.7269 97.0233 18.8241C116.978 19.2642 129.358 40.51 119.765 57.8535C117.647 61.6825 117.647 66.3175 119.765 70.1465C129.358 87.49 116.978 108.736 97.0233 109.176C92.6177 109.273 88.5666 111.591 86.2789 115.322C75.9167 132.226 51.1577 132.226 40.7956 115.322C38.5079 111.591 34.4567 109.273 30.0512 109.176C10.0962 108.736 -2.28314 87.49 7.3097 70.1465C9.42756 66.3175 9.42756 61.6825 7.3097 57.8535C-2.28314 40.51 10.0962 19.2642 30.0512 18.8241C34.4567 18.7269 38.5079 16.4094 40.7956 12.6775ZM80.4239 16.2015C72.7296 3.65 54.345 3.65 46.6507 16.2015C43.1488 21.9141 36.9476 25.4616 30.2038 25.6103C15.3863 25.9371 6.19407 41.7129 13.3172 54.5912C16.5591 60.4525 16.5591 67.5475 13.3172 73.4088L13.1534 73.7111C6.33812 86.5326 15.5021 102.065 30.2038 102.39C36.9476 102.538 43.1488 106.086 46.6507 111.798C54.2849 124.252 72.4429 124.349 80.2415 112.09L80.4239 111.798C83.871 106.175 89.9338 102.65 96.555 102.399L96.8708 102.39C111.573 102.065 120.737 86.5326 113.921 73.7111L113.757 73.4088C110.566 67.6392 110.516 60.6739 113.608 54.8669L113.757 54.5912C120.881 41.7129 111.688 25.9371 96.8708 25.6103C90.127 25.4616 83.9258 21.9141 80.4239 16.2015Z" fill="#F6F0AF"/>
<path d="M70.9035 74.3697C70.9035 73.7615 71.057 73.0773 71.3639 72.3171C71.6708 71.5351 71.9667 70.9161 72.2517 70.4599C72.5367 69.9821 72.7011 69.7431 72.7449 69.7431C74.0164 70.5034 75.3536 70.8835 76.7566 70.8835C77.6334 70.8835 78.3349 70.7097 78.861 70.3622C79.4091 70.0146 79.6831 69.5368 79.6831 68.9286C79.6831 68.2987 79.431 67.8968 78.9268 67.7231C78.4445 67.5493 77.6663 67.4298 76.5922 67.3647H75.4084C75.1453 67.3647 74.8932 67.0497 74.6521 66.4198C74.4329 65.7682 74.3233 65.1383 74.3233 64.5301C74.3233 63.5092 74.6302 62.9879 75.244 62.9661L76.1976 62.9336C76.7894 62.9336 77.4033 62.7707 78.039 62.4448C78.6966 62.0973 79.0255 61.6629 79.0255 61.1416C79.0255 60.2293 78.2034 59.7731 76.5593 59.7731C75.3317 59.7731 74.1479 60.0121 73.008 60.4899C72.0215 58.7305 71.5283 57.3621 71.5283 56.3847C71.5283 55.3855 72.2188 54.6361 73.5998 54.1365C75.0028 53.6369 76.7566 53.3871 78.861 53.3871C80.9655 53.3871 82.6097 53.8216 83.7934 54.6904C84.9772 55.5593 85.5691 56.7431 85.5691 58.2418C85.5691 60.8701 84.4291 62.8901 82.1493 64.302C84.9114 65.4098 86.2925 67.2886 86.2925 69.9386C86.2925 72.0021 85.5581 73.6746 84.0893 74.9562C82.6206 76.216 80.5161 76.8459 77.7759 76.8459C76.0441 76.8459 74.4658 76.607 73.0409 76.1291C71.6159 75.6295 70.9035 75.0431 70.9035 74.3697Z" fill="#F0F0C7"/>
<path d="M68.0956 70.3296H55.107C54.7125 70.3296 54.4275 70.0146 54.2521 69.3847C54.1644 69.0589 54.1206 68.744 54.1206 68.4399C54.1206 68.1358 54.1644 67.8208 54.2521 67.495C54.4275 66.8651 54.7125 66.5501 55.107 66.5501H68.0956C68.4902 66.5501 68.7752 66.8651 68.9506 67.495C69.0383 67.8208 69.0821 68.1358 69.0821 68.4399C69.0821 68.744 69.0383 69.0589 68.9506 69.3847C68.7752 70.0146 68.4902 70.3296 68.0956 70.3296Z" fill="#F0F0C7"/>
<path d="M51.3174 75.9662C51.3174 76.3355 50.1993 76.5201 47.9633 76.5201C45.7493 76.5201 44.6422 76.3355 44.6422 75.9662V59.9035L41.0909 59.9361C40.4333 59.9361 40.1045 58.8934 40.1045 56.8082C40.1045 56.0914 40.1702 55.3963 40.3017 54.723C40.4552 54.0496 40.7073 53.713 41.058 53.713H50.0678C50.4405 53.713 50.7364 53.7998 50.9557 53.9736C51.1968 54.1257 51.3174 54.3212 51.3174 54.5601V75.9662Z" fill="#F0F0C7"/>
</g>
<defs>
<filter id="filter0_d_26_42" x="0" y="0" width="127.075" height="136" filterUnits="userSpaceOnUse" color-interpolation-filters="sRGB">
<feFlood flood-opacity="0" result="BackgroundImageFix"/>
<feColorMatrix in="SourceAlpha" type="matrix" values="0 0 0 0 0 0 0 0 0 0 0 0 0 0 0 0 0 0 127 0" result="hardAlpha"/>
<feOffset dy="4"/>
<feGaussianBlur stdDeviation="2"/>
<feComposite in2="hardAlpha" operator="out"/>
<feColorMatrix type="matrix" values="0 0 0 0 0 0 0 0 0 0 0 0 0 0 0 0 0 0 0.25 0"/>
<feBlend mode="normal" in2="BackgroundImageFix" result="effect1_dropShadow_26_42"/>
<feBlend mode="normal" in="SourceGraphic" in2="effect1_dropShadow_26_42" result="shape"/>
</filter>
</defs>
</svg>
