<svg width="128" height="136" viewBox="0 0 128 136" fill="none" xmlns="http://www.w3.org/2000/svg">
<g filter="url(#filter0_d_26_40)">
<path d="M46.6507 16.2015C54.345 3.65 72.7296 3.65 80.4239 16.2015C83.9258 21.9141 90.127 25.4616 96.8708 25.6103C111.688 25.9371 120.881 41.7129 113.757 54.5912C110.516 60.4525 110.516 67.5475 113.757 73.4088C120.881 86.2871 111.688 102.063 96.8708 102.39C90.127 102.538 83.9258 106.086 80.4239 111.798C72.7296 124.35 54.345 124.35 46.6507 111.798C43.1488 106.086 36.9476 102.538 30.2038 102.39C15.3863 102.063 6.19408 86.2871 13.3172 73.4088C16.5591 67.5475 16.5591 60.4525 13.3172 54.5912C6.19408 41.7129 15.3863 25.9371 30.2038 25.6103C36.9476 25.4616 43.1488 21.9141 46.6507 16.2015Z" fill="#EFA271"/>
<path d="M40.7956 12.6775C51.1577 -4.22587 75.9167 -4.22583 86.2789 12.6775C88.5666 16.4094 92.6177 18.7269 97.0233 18.8241C116.978 19.2642 129.358 40.51 119.765 57.8535C117.647 61.6825 117.647 66.3175 119.765 70.1465C129.358 87.49 116.978 108.736 97.0233 109.176C92.6177 109.273 88.5666 111.591 86.2789 115.322C75.9167 132.226 51.1577 132.226 40.7956 115.322C38.5079 111.591 34.4568 109.273 30.0512 109.176C10.0962 108.736 -2.28315 87.49 7.3097 70.1465C9.42756 66.3175 9.42756 61.6825 7.3097 57.8535C-2.28315 40.51 10.0962 19.2642 30.0512 18.8241C34.4568 18.7269 38.5079 16.4094 40.7956 12.6775ZM80.4239 16.2015C72.7296 3.65 54.345 3.65 46.6507 16.2015C43.1488 21.9141 36.9476 25.4616 30.2038 25.6103C15.3863 25.9371 6.19408 41.7129 13.3172 54.5912C16.5591 60.4525 16.5591 67.5475 13.3172 73.4088L13.1534 73.7111C6.33812 86.5326 15.5021 102.065 30.2038 102.39C36.9476 102.538 43.1488 106.086 46.6507 111.798C54.285 124.252 72.4429 124.349 80.2416 112.09L80.4239 111.798C83.871 106.175 89.9338 102.65 96.555 102.399L96.8708 102.39C111.573 102.065 120.737 86.5326 113.921 73.7111L113.757 73.4088C110.566 67.6392 110.516 60.6739 113.608 54.8669L113.757 54.5912C120.881 41.7129 111.688 25.9371 96.8708 25.6103C90.127 25.4616 83.9258 21.9141 80.4239 16.2015Z" fill="#EFF1C5"/>
<path d="M46.6507 16.2015C54.345 3.65 72.7296 3.65 80.4239 16.2015C83.9258 21.9141 90.127 25.4616 96.8708 25.6103C111.688 25.9371 120.881 41.7129 113.757 54.5912C110.516 60.4525 110.516 67.5475 113.757 73.4088C120.881 86.2871 111.688 102.063 96.8708 102.39C90.127 102.538 83.9258 106.086 80.4239 111.798C72.7296 124.35 54.345 124.35 46.6507 111.798C43.1488 106.086 36.9476 102.538 30.2038 102.39C15.3863 102.063 6.19408 86.2871 13.3172 73.4088C16.5591 67.5475 16.5591 60.4525 13.3172 54.5912C6.19408 41.7129 15.3863 25.9371 30.2038 25.6103C36.9476 25.4616 43.1488 21.9141 46.6507 16.2015Z" fill="#EFA271"/>
<path d="M40.7956 12.6775C51.1577 -4.22587 75.9167 -4.22583 86.2789 12.6775C88.5666 16.4094 92.6177 18.7269 97.0233 18.8241C116.978 19.2642 129.358 40.51 119.765 57.8535C117.647 61.6825 117.647 66.3175 119.765 70.1465C129.358 87.49 116.978 108.736 97.0233 109.176C92.6177 109.273 88.5666 111.591 86.2789 115.322C75.9167 132.226 51.1577 132.226 40.7956 115.322C38.5079 111.591 34.4568 109.273 30.0512 109.176C10.0962 108.736 -2.28315 87.49 7.3097 70.1465C9.42756 66.3175 9.42756 61.6825 7.3097 57.8535C-2.28315 40.51 10.0962 19.2642 30.0512 18.8241C34.4568 18.7269 38.5079 16.4094 40.7956 12.6775ZM80.4239 16.2015C72.7296 3.65 54.345 3.65 46.6507 16.2015C43.1488 21.9141 36.9476 25.4616 30.2038 25.6103C15.3863 25.9371 6.19408 41.7129 13.3172 54.5912C16.5591 60.4525 16.5591 67.5475 13.3172 73.4088L13.1534 73.7111C6.33812 86.5326 15.5021 102.065 30.2038 102.39C36.9476 102.538 43.1488 106.086 46.6507 111.798C54.285 124.252 72.4429 124.349 80.2416 112.09L80.4239 111.798C83.871 106.175 89.9338 102.65 96.555 102.399L96.8708 102.39C111.573 102.065 120.737 86.5326 113.921 73.7111L113.757 73.4088C110.566 67.6392 110.516 60.6739 113.608 54.8669L113.757 54.5912C120.881 41.7129 111.688 25.9371 96.8708 25.6103C90.127 25.4616 83.9258 21.9141 80.4239 16.2015Z" fill="#F6F0AF"/>
<path d="M85.8517 75.9662C85.8517 76.3355 84.7337 76.5201 82.4977 76.5201C80.2836 76.5201 79.1765 76.3355 79.1765 75.9662V59.9034L75.6252 59.936C74.9676 59.936 74.6388 58.8934 74.6388 56.8082C74.6388 56.0914 74.7045 55.3963 74.8361 54.723C74.9895 54.0496 75.2416 53.7129 75.5924 53.7129H84.6021C84.9748 53.7129 85.2708 53.7998 85.49 53.9736C85.7311 54.1256 85.8517 54.3211 85.8517 54.5601V75.9662Z" fill="#EFF1C5"/>
<path d="M71.9953 70.3296H59.0068C58.6122 70.3296 58.3272 70.0146 58.1518 69.3847C58.0641 69.0589 58.0203 68.7439 58.0203 68.4398C58.0203 68.1357 58.0641 67.8208 58.1518 67.495C58.3272 66.8651 58.6122 66.5501 59.0068 66.5501H71.9953C72.3899 66.5501 72.6749 66.8651 72.8503 67.495C72.938 67.8208 72.9818 68.1357 72.9818 68.4398C72.9818 68.7439 72.938 69.0589 72.8503 69.3847C72.6749 70.0146 72.3899 70.3296 71.9953 70.3296Z" fill="#EFF1C5"/>
<path d="M46.3578 76.8459C43.6176 76.8459 41.3706 75.8467 39.6169 73.8484C37.8851 71.85 37.0192 68.9286 37.0192 65.0839C37.0192 61.2393 37.896 58.3395 39.6498 56.3846C41.4035 54.408 43.6614 53.4197 46.4236 53.4197C49.2076 53.4197 51.4546 54.3972 53.1645 56.3521C54.8743 58.3069 55.7293 61.2502 55.7293 65.1817C55.7293 69.1132 54.8524 72.0455 53.0987 73.9787C51.3669 75.8902 49.1199 76.8459 46.3578 76.8459ZM46.3578 59.6754C45.5248 59.6754 44.8123 60.1532 44.2204 61.109C43.6505 62.043 43.3655 63.3788 43.3655 65.1165C43.3655 66.8542 43.6395 68.19 44.1876 69.1241C44.7575 70.0363 45.4809 70.4925 46.3578 70.4925C47.2566 70.4925 47.98 70.0255 48.528 69.0915C49.098 68.1575 49.383 66.8216 49.383 65.0839C49.383 63.3462 49.087 62.0104 48.4952 61.0764C47.9252 60.1424 47.2127 59.6754 46.3578 59.6754Z" fill="#EFF1C5"/>
</g>
<defs>
<filter id="filter0_d_26_40" x="0" y="0" width="127.075" height="136" filterUnits="userSpaceOnUse" color-interpolation-filters="sRGB">
<feFlood flood-opacity="0" result="BackgroundImageFix"/>
<feColorMatrix in="SourceAlpha" type="matrix" values="0 0 0 0 0 0 0 0 0 0 0 0 0 0 0 0 0 0 127 0" result="hardAlpha"/>
<feOffset dy="4"/>
<feGaussianBlur stdDeviation="2"/>
<feComposite in2="hardAlpha" operator="out"/>
<feColorMatrix type="matrix" values="0 0 0 0 0 0 0 0 0 0 0 0 0 0 0 0 0 0 0.25 0"/>
<feBlend mode="normal" in2="BackgroundImageFix" result="effect1_dropShadow_26_40"/>
<feBlend mode="normal" in="SourceGraphic" in2="effect1_dropShadow_26_40" result="shape"/>
</filter>
</defs>
</svg>
