<svg width="120" height="128" viewBox="0 0 120 128" fill="none" xmlns="http://www.w3.org/2000/svg">
<path d="M42.6507 16.2015C50.345 3.65 68.7296 3.65 76.4239 16.2015C79.9258 21.9141 86.127 25.4616 92.8708 25.6103C107.688 25.9371 116.881 41.7129 109.757 54.5912C106.515 60.4525 106.515 67.5475 109.757 73.4088C116.881 86.2871 107.688 102.063 92.8708 102.39C86.127 102.538 79.9258 106.086 76.4239 111.798C68.7296 124.35 50.345 124.35 42.6507 111.798C39.1488 106.086 32.9476 102.538 26.2038 102.39C11.3863 102.063 2.19407 86.2871 9.31718 73.4088C12.5591 67.5475 12.5591 60.4525 9.31718 54.5912C2.19407 41.7129 11.3863 25.9371 26.2038 25.6103C32.9476 25.4616 39.1488 21.9141 42.6507 16.2015Z" fill="#F6877F"/>
<path d="M36.7956 12.6775C47.1577 -4.22587 71.9167 -4.22583 82.2789 12.6775C84.5666 16.4094 88.6177 18.7269 93.0233 18.8241C112.978 19.2642 125.358 40.51 115.765 57.8535C113.647 61.6825 113.647 66.3175 115.765 70.1465C125.358 87.49 112.978 108.736 93.0233 109.176C88.6177 109.273 84.5666 111.591 82.2789 115.322C71.9167 132.226 47.1577 132.226 36.7956 115.322C34.5079 111.591 30.4567 109.273 26.0512 109.176C6.09618 108.736 -6.28314 87.49 3.3097 70.1465C5.42756 66.3175 5.42756 61.6825 3.3097 57.8535C-6.28314 40.51 6.09619 19.2642 26.0512 18.8241C30.4567 18.7269 34.5079 16.4094 36.7956 12.6775ZM76.4239 16.2015C68.7296 3.65 50.345 3.65 42.6507 16.2015C39.1488 21.9141 32.9476 25.4616 26.2038 25.6103C11.3863 25.9371 2.19407 41.7129 9.31718 54.5912C12.5591 60.4525 12.5591 67.5475 9.31718 73.4088L9.15338 73.7111C2.33812 86.5326 11.5021 102.065 26.2038 102.39C32.9476 102.538 39.1488 106.086 42.6507 111.798C50.2849 124.252 68.4429 124.349 76.2415 112.09L76.4239 111.798C79.871 106.175 85.9338 102.65 92.555 102.399L92.8708 102.39C107.573 102.065 116.737 86.5326 109.921 73.7111L109.757 73.4088C106.566 67.6392 106.516 60.6739 109.608 54.8669L109.757 54.5912C116.881 41.7129 107.688 25.9371 92.8708 25.6103C86.127 25.4616 79.9258 21.9141 76.4239 16.2015Z" fill="#F6F0AF"/>
<path d="M42.5811 76.967C41.7451 76.967 40.8761 76.89 39.9741 76.736C39.0941 76.582 38.2581 76.351 37.4661 76.043C36.6961 75.735 36.0471 75.339 35.5191 74.855C35.0131 74.371 34.7161 73.799 34.6281 73.139C34.5181 72.303 34.7051 71.665 35.1891 71.225C35.6731 70.763 36.3111 70.532 37.1031 70.532C37.6531 70.532 38.1041 70.642 38.4561 70.862C38.8081 71.082 39.1711 71.302 39.5451 71.522C39.9191 71.742 40.4031 71.852 40.9971 71.852C42.5371 71.852 43.3071 71.269 43.3071 70.103C43.3071 69.597 43.1091 69.179 42.7131 68.849C42.3171 68.519 41.6901 68.354 40.8321 68.354C40.4361 68.354 40.0181 68.299 39.5781 68.189C39.1601 68.057 38.7971 67.837 38.4891 67.529C38.1811 67.199 38.0271 66.748 38.0271 66.176C38.0271 65.604 38.1811 65.175 38.4891 64.889C38.7971 64.581 39.1711 64.372 39.6111 64.262C40.0511 64.152 40.4801 64.097 40.8981 64.097C41.4921 64.097 42.0421 63.954 42.5481 63.668C43.0541 63.382 43.3071 62.964 43.3071 62.414C43.3071 61.908 43.1091 61.479 42.7131 61.127C42.3171 60.775 41.8001 60.599 41.1621 60.599C40.5901 60.599 40.1391 60.654 39.8091 60.764C39.5011 60.874 39.2261 61.006 38.9841 61.16C38.7641 61.292 38.5221 61.413 38.2581 61.523C37.9941 61.633 37.6311 61.688 37.1691 61.688C36.3771 61.688 35.7611 61.468 35.3211 61.028C34.8811 60.566 34.6611 59.884 34.6611 58.982C34.6611 58.212 34.9581 57.442 35.5521 56.672C36.1681 55.88 37.0481 55.22 38.1921 54.692C39.3581 54.164 40.7551 53.9 42.3831 53.9C43.9451 53.9 45.3201 54.241 46.5081 54.923C47.6961 55.583 48.6201 56.441 49.2801 57.497C49.9621 58.553 50.3031 59.653 50.3031 60.797C50.3031 61.589 50.1271 62.469 49.7751 63.437C49.4231 64.405 48.8511 65.241 48.0591 65.945C48.4111 66.231 48.7521 66.572 49.0821 66.968C49.4121 67.342 49.6871 67.837 49.9071 68.453C50.1491 69.047 50.2701 69.817 50.2701 70.763C50.2701 71.863 49.9291 72.886 49.2471 73.832C48.5871 74.778 47.6741 75.537 46.5081 76.109C45.3641 76.681 44.0551 76.967 42.5811 76.967Z" fill="#F0F0C7"/>
<path d="M58.4992 70.928C57.8392 70.928 57.1462 70.917 56.4202 70.895C55.7162 70.873 55.0672 70.796 54.4732 70.664C53.8792 70.532 53.3952 70.301 53.0212 69.971C52.6472 69.619 52.4602 69.113 52.4602 68.453C52.4602 67.793 52.6472 67.298 53.0212 66.968C53.3952 66.616 53.8792 66.374 54.4732 66.242C55.0672 66.088 55.7162 66 56.4202 65.978C57.1462 65.956 57.8392 65.945 58.4992 65.945C59.1812 65.945 59.8742 65.956 60.5782 65.978C61.2822 66 61.9312 66.088 62.5252 66.242C63.1412 66.374 63.6362 66.616 64.0102 66.968C64.3842 67.298 64.5712 67.793 64.5712 68.453C64.5712 69.113 64.3842 69.619 64.0102 69.971C63.6362 70.301 63.1412 70.532 62.5252 70.664C61.9312 70.796 61.2822 70.873 60.5782 70.895C59.8742 70.917 59.1812 70.928 58.4992 70.928Z" fill="#F0F0C7"/>
<path d="M73.688 76.967C72.808 76.967 71.928 76.824 71.048 76.538C70.168 76.23 69.442 75.812 68.87 75.284C68.298 74.734 68.012 74.107 68.012 73.403C68.012 72.875 68.199 72.38 68.573 71.918C68.969 71.434 69.596 71.192 70.454 71.192C70.982 71.192 71.378 71.28 71.642 71.456C71.906 71.61 72.17 71.775 72.434 71.951C72.72 72.127 73.149 72.215 73.721 72.215C74.645 72.215 75.338 71.973 75.8 71.489C76.262 71.005 76.493 70.499 76.493 69.971C76.493 69.135 76.229 68.475 75.701 67.991C75.173 67.485 74.392 67.232 73.358 67.232C72.874 67.232 72.456 67.331 72.104 67.529C71.752 67.705 71.4 67.903 71.048 68.123C70.718 68.343 70.344 68.519 69.926 68.651C69.53 68.761 69.035 68.75 68.441 68.618C67.803 68.464 67.363 68.134 67.121 67.628C66.901 67.1 66.78 66.44 66.758 65.648C66.758 64.856 66.758 63.998 66.758 63.074C66.758 62.546 66.758 61.908 66.758 61.16C66.758 60.412 66.758 59.697 66.758 59.015C66.758 58.333 66.747 57.838 66.725 57.53C66.725 56.496 67.11 55.671 67.88 55.055C68.65 54.439 69.618 54.087 70.784 53.999C71.51 53.955 72.302 53.933 73.16 53.933C74.04 53.911 74.821 53.9 75.503 53.9C76.383 53.9 77.274 53.922 78.176 53.966C79.078 53.988 79.903 54.087 80.651 54.263C81.399 54.417 81.993 54.692 82.433 55.088C82.895 55.484 83.126 56.056 83.126 56.804C83.126 57.816 82.697 58.531 81.839 58.949C80.981 59.345 79.771 59.587 78.209 59.675C76.647 59.741 74.81 59.774 72.698 59.774V62.546C73.732 62.304 74.711 62.183 75.635 62.183C77.153 62.183 78.484 62.491 79.628 63.107C80.794 63.701 81.707 64.548 82.367 65.648C83.027 66.748 83.357 68.024 83.357 69.476C83.357 70.708 83.126 71.764 82.664 72.644C82.202 73.524 81.586 74.25 80.816 74.822C80.068 75.372 79.254 75.812 78.374 76.142C77.516 76.45 76.669 76.67 75.833 76.802C75.019 76.912 74.304 76.967 73.688 76.967Z" fill="#F0F0C7"/>
</svg>
