<svg width="120" height="128" viewBox="0 0 120 128" fill="none" xmlns="http://www.w3.org/2000/svg">
<path d="M42.6507 16.2015C50.345 3.65 68.7296 3.65 76.4239 16.2015C79.9258 21.9141 86.127 25.4616 92.8708 25.6103C107.688 25.9371 116.881 41.7129 109.757 54.5912C106.516 60.4525 106.516 67.5475 109.757 73.4088C116.881 86.2871 107.688 102.063 92.8708 102.39C86.127 102.538 79.9258 106.086 76.4239 111.798C68.7296 124.35 50.345 124.35 42.6507 111.798C39.1488 106.086 32.9476 102.538 26.2038 102.39C11.3863 102.063 2.19408 86.2871 9.31719 73.4088C12.5591 67.5475 12.5591 60.4525 9.31719 54.5912C2.19408 41.7129 11.3863 25.9371 26.2038 25.6103C32.9476 25.4616 39.1488 21.9141 42.6507 16.2015Z" fill="#EFA271"/>
<path d="M36.7956 12.6775C47.1577 -4.22587 71.9167 -4.22583 82.2789 12.6775C84.5666 16.4094 88.6177 18.7269 93.0233 18.8241C112.978 19.2642 125.358 40.51 115.765 57.8535C113.647 61.6825 113.647 66.3175 115.765 70.1465C125.358 87.49 112.978 108.736 93.0233 109.176C88.6177 109.273 84.5666 111.591 82.2789 115.322C71.9167 132.226 47.1577 132.226 36.7956 115.322C34.5079 111.591 30.4568 109.273 26.0512 109.176C6.0962 108.736 -6.28315 87.49 3.3097 70.1465C5.42756 66.3175 5.42756 61.6825 3.3097 57.8535C-6.28315 40.51 6.09621 19.2642 26.0512 18.8241C30.4568 18.7269 34.5079 16.4094 36.7956 12.6775ZM76.4239 16.2015C68.7296 3.65 50.345 3.65 42.6507 16.2015C39.1488 21.9141 32.9476 25.4616 26.2038 25.6103C11.3863 25.9371 2.19408 41.7129 9.31719 54.5912C12.5591 60.4525 12.5591 67.5475 9.31719 73.4088L9.15337 73.7111C2.33812 86.5326 11.5021 102.065 26.2038 102.39C32.9476 102.538 39.1488 106.086 42.6507 111.798C50.285 124.252 68.4429 124.349 76.2416 112.09L76.4239 111.798C79.871 106.175 85.9338 102.65 92.555 102.399L92.8708 102.39C107.573 102.065 116.737 86.5326 109.921 73.7111L109.757 73.4088C106.566 67.6392 106.516 60.6739 109.608 54.8669L109.757 54.5912C116.881 41.7129 107.688 25.9371 92.8708 25.6103C86.127 25.4616 79.9258 21.9141 76.4239 16.2015Z" fill="#EFF1C5"/>
<path d="M42.6507 16.2015C50.345 3.65 68.7296 3.65 76.4239 16.2015C79.9258 21.9141 86.127 25.4616 92.8708 25.6103C107.688 25.9371 116.881 41.7129 109.757 54.5912C106.516 60.4525 106.516 67.5475 109.757 73.4088C116.881 86.2871 107.688 102.063 92.8708 102.39C86.127 102.538 79.9258 106.086 76.4239 111.798C68.7296 124.35 50.345 124.35 42.6507 111.798C39.1488 106.086 32.9476 102.538 26.2038 102.39C11.3863 102.063 2.19408 86.2871 9.31719 73.4088C12.5591 67.5475 12.5591 60.4525 9.31719 54.5912C2.19408 41.7129 11.3863 25.9371 26.2038 25.6103C32.9476 25.4616 39.1488 21.9141 42.6507 16.2015Z" fill="#EFA271"/>
<path d="M36.7956 12.6775C47.1577 -4.22587 71.9167 -4.22583 82.2789 12.6775C84.5666 16.4094 88.6177 18.7269 93.0233 18.8241C112.978 19.2642 125.358 40.51 115.765 57.8535C113.647 61.6825 113.647 66.3175 115.765 70.1465C125.358 87.49 112.978 108.736 93.0233 109.176C88.6177 109.273 84.5666 111.591 82.2789 115.322C71.9167 132.226 47.1577 132.226 36.7956 115.322C34.5079 111.591 30.4568 109.273 26.0512 109.176C6.0962 108.736 -6.28315 87.49 3.3097 70.1465C5.42756 66.3175 5.42756 61.6825 3.3097 57.8535C-6.28315 40.51 6.09621 19.2642 26.0512 18.8241C30.4568 18.7269 34.5079 16.4094 36.7956 12.6775ZM76.4239 16.2015C68.7296 3.65 50.345 3.65 42.6507 16.2015C39.1488 21.9141 32.9476 25.4616 26.2038 25.6103C11.3863 25.9371 2.19408 41.7129 9.31719 54.5912C12.5591 60.4525 12.5591 67.5475 9.31719 73.4088L9.15337 73.7111C2.33812 86.5326 11.5021 102.065 26.2038 102.39C32.9476 102.538 39.1488 106.086 42.6507 111.798C50.285 124.252 68.4429 124.349 76.2416 112.09L76.4239 111.798C79.871 106.175 85.9338 102.65 92.555 102.399L92.8708 102.39C107.573 102.065 116.737 86.5326 109.921 73.7111L109.757 73.4088C106.566 67.6392 106.516 60.6739 109.608 54.8669L109.757 54.5912C116.881 41.7129 107.688 25.9371 92.8708 25.6103C86.127 25.4616 79.9258 21.9141 76.4239 16.2015Z" fill="#F6F0AF"/>
<path d="M41.494 77C39.58 77 37.886 76.494 36.412 75.482C34.96 74.448 33.827 73.051 33.013 71.291C32.221 69.531 31.825 67.584 31.825 65.45C31.825 63.448 32.221 61.567 33.013 59.807C33.805 58.025 34.938 56.595 36.412 55.517C37.886 54.439 39.58 53.9 41.494 53.9C43.408 53.9 45.102 54.406 46.576 55.418C48.05 56.43 49.183 57.816 49.975 59.576C50.789 61.336 51.196 63.294 51.196 65.45C51.196 67.408 50.789 69.278 49.975 71.06C49.183 72.842 48.05 74.283 46.576 75.383C45.102 76.461 43.408 77 41.494 77ZM41.494 70.829C42.682 70.829 43.573 70.345 44.167 69.377C44.761 68.409 45.058 67.21 45.058 65.78C45.058 64.372 44.761 63.195 44.167 62.249C43.595 61.281 42.704 60.797 41.494 60.797C40.284 60.797 39.382 61.281 38.788 62.249C38.216 63.195 37.93 64.372 37.93 65.78C37.93 66.55 38.051 67.32 38.293 68.09C38.535 68.86 38.92 69.509 39.448 70.037C39.998 70.565 40.68 70.829 41.494 70.829Z" fill="#EFF1C5"/>
<path d="M58.6117 70.928C56.9397 70.928 55.6417 70.785 54.7177 70.499C53.7937 70.191 53.3317 69.509 53.3317 68.453C53.3317 67.375 53.8157 66.693 54.7837 66.407C55.7517 66.099 57.0937 65.945 58.8097 65.945H60.3277C61.9117 65.945 63.1547 66.11 64.0567 66.44C64.9807 66.748 65.4427 67.419 65.4427 68.453C65.4427 69.465 64.9917 70.136 64.0897 70.466C63.2097 70.796 62.0217 70.961 60.5257 70.961L58.6117 70.928Z" fill="#EFF1C5"/>
<path d="M73.5695 77.066C72.4255 77.066 71.5125 77.011 70.8305 76.901C70.1485 76.769 69.6205 76.516 69.2465 76.142C68.8725 75.746 68.6855 75.163 68.6855 74.393C68.6855 73.579 68.8725 72.93 69.2465 72.446C69.6205 71.962 70.2585 71.379 71.1605 70.697L72.5465 69.608C74.1305 68.244 75.3405 67.1 76.1765 66.176C77.0125 65.23 77.4305 64.295 77.4305 63.371C77.4305 62.799 77.2545 62.315 76.9025 61.919C76.5725 61.523 76.1435 61.325 75.6155 61.325C75.0435 61.325 74.6255 61.457 74.3615 61.721C74.1195 61.985 73.9215 62.293 73.7675 62.645C73.6355 62.975 73.5365 63.217 73.4705 63.371C73.2285 63.921 72.8545 64.317 72.3485 64.559C71.8425 64.801 71.3035 64.922 70.7315 64.922C69.8515 64.922 69.1035 64.603 68.4875 63.965C67.8935 63.327 67.5965 62.392 67.5965 61.16C67.5965 59.796 68.0035 58.564 68.8175 57.464C69.6315 56.342 70.6985 55.473 72.0185 54.857C73.3605 54.219 74.7795 53.9 76.2755 53.9C77.7275 53.9 79.1025 54.219 80.4005 54.857C81.7205 55.473 82.7875 56.397 83.6015 57.629C84.4155 58.839 84.8225 60.28 84.8225 61.952C84.8225 63.514 84.3385 65.098 83.3705 66.704C82.4245 68.288 81.2255 69.52 79.7735 70.4C81.5555 70.4 82.8975 70.642 83.7995 71.126C84.7015 71.61 85.1525 72.424 85.1525 73.568C85.1525 74.536 84.8665 75.262 84.2945 75.746C83.7225 76.23 82.8535 76.56 81.6875 76.736C80.5215 76.912 78.8825 77.011 76.7705 77.033L73.5695 77.066Z" fill="#EFF1C5"/>
</svg>
