<svg width="128" height="136" viewBox="0 0 128 136" fill="none" xmlns="http://www.w3.org/2000/svg">
<g filter="url(#filter0_d_26_48)">
<path d="M46.6507 16.2015C54.345 3.65 72.7295 3.65 80.4238 16.2015C83.9257 21.9141 90.127 25.4616 96.8708 25.6103C111.688 25.9371 120.88 41.7129 113.757 54.5912C110.515 60.4525 110.515 67.5475 113.757 73.4088C120.88 86.2871 111.688 102.063 96.8708 102.39C90.127 102.538 83.9257 106.086 80.4238 111.798C72.7295 124.35 54.345 124.35 46.6507 111.798C43.1488 106.086 36.9476 102.538 30.2037 102.39C15.3863 102.063 6.19403 86.2871 13.3171 73.4088C16.5591 67.5475 16.5591 60.4525 13.3171 54.5912C6.19403 41.7129 15.3863 25.9371 30.2037 25.6103C36.9476 25.4616 43.1488 21.9141 46.6507 16.2015Z" fill="#C18BAA"/>
<path d="M40.7956 12.6775C51.1577 -4.22587 75.9168 -4.22583 86.2789 12.6775C88.5666 16.4094 92.6178 18.7269 97.0233 18.8241C116.978 19.2642 129.358 40.51 119.765 57.8535C117.647 61.6825 117.647 66.3175 119.765 70.1465C129.358 87.49 116.978 108.736 97.0233 109.176C92.6178 109.273 88.5666 111.591 86.2789 115.322C75.9167 132.226 51.1577 132.226 40.7956 115.322C38.5079 111.591 34.4568 109.273 30.0512 109.176C10.0962 108.736 -2.28315 87.49 7.3097 70.1465C9.42756 66.3175 9.42756 61.6825 7.3097 57.8535C-2.28315 40.51 10.0962 19.2642 30.0512 18.8241C34.4568 18.7269 38.5079 16.4094 40.7956 12.6775ZM80.4238 16.2015C72.7295 3.65 54.345 3.65 46.6507 16.2015C43.1488 21.9141 36.9476 25.4616 30.2037 25.6103C15.3863 25.9371 6.19403 41.7129 13.3171 54.5912C16.5591 60.4525 16.5591 67.5475 13.3171 73.4088L13.1534 73.7111C6.33813 86.5326 15.502 102.065 30.2037 102.39C36.9476 102.538 43.1488 106.086 46.6507 111.798C54.2849 124.252 72.443 124.349 80.2416 112.09L80.4238 111.798C83.871 106.175 89.9338 102.65 96.555 102.399L96.8708 102.39C111.572 102.065 120.737 86.5326 113.921 73.7111L113.757 73.4088C110.566 67.6392 110.516 60.6739 113.608 54.8669L113.757 54.5912C120.88 41.7129 111.688 25.9371 96.8708 25.6103C90.127 25.4616 83.9257 21.9141 80.4238 16.2015Z" fill="#EDE7AD"/>
<path d="M82.9426 57.8182V63.292H88.4997C88.8943 63.292 89.1792 63.6069 89.3546 64.2368C89.4423 64.5626 89.4861 64.8776 89.4861 65.1817C89.4861 65.4858 89.4423 65.8008 89.3546 66.1266C89.1792 66.7565 88.8943 67.0714 88.4997 67.0714H82.9426V72.6429C82.9426 73.0339 82.6247 73.3163 81.989 73.49C81.6821 73.5769 81.3642 73.6203 81.0354 73.6203L80.0818 73.49C79.4461 73.3163 79.1282 73.0339 79.1282 72.6429V67.0714H73.5382C73.1436 67.0714 72.8586 66.7565 72.6832 66.1266C72.5955 65.8008 72.5517 65.4858 72.5517 65.1817C72.5517 64.8776 72.5955 64.5626 72.6832 64.2368C72.8586 63.6069 73.1436 63.292 73.5382 63.292H79.1282V57.8182C79.1282 57.4273 79.4461 57.1449 80.0818 56.9711C80.3887 56.8842 80.7066 56.8408 81.0354 56.8408L81.989 56.9711C82.6247 57.1449 82.9426 57.4273 82.9426 57.8182Z" fill="#EEF1CA"/>
<path d="M60.8234 76.8459C58.0832 76.8459 55.8363 75.8468 54.0826 73.8484C52.3508 71.8501 51.4849 68.9286 51.4849 65.084C51.4849 61.2393 52.3617 58.3396 54.1154 56.3847C55.8691 54.408 58.1271 53.4197 60.8892 53.4197C63.6733 53.4197 65.9202 54.3972 67.6301 56.3521C69.34 58.307 70.195 61.2502 70.195 65.1817C70.195 69.1132 69.3181 72.0456 67.5644 73.9787C65.8326 75.8902 63.5856 76.8459 60.8234 76.8459ZM60.8234 59.6754C59.9904 59.6754 59.278 60.1533 58.6861 61.109C58.1161 62.043 57.8312 63.3789 57.8312 65.1165C57.8312 66.8542 58.1052 68.1901 58.6532 69.1241C59.2232 70.0364 59.9466 70.4925 60.8234 70.4925C61.7222 70.4925 62.4457 70.0255 62.9937 69.0915C63.5637 68.1575 63.8486 66.8216 63.8486 65.084C63.8486 63.3463 63.5527 62.0104 62.9608 61.0764C62.3909 60.1424 61.6784 59.6754 60.8234 59.6754Z" fill="#EEF1CA"/>
<path d="M48.6816 75.9662C48.6816 76.3355 47.5636 76.5201 45.3276 76.5201C43.1135 76.5201 42.0065 76.3355 42.0065 75.9662V59.9035L38.4551 59.9361C37.7975 59.9361 37.4687 58.8934 37.4687 56.8082C37.4687 56.0914 37.5344 55.3963 37.666 54.723C37.8194 54.0496 38.0715 53.713 38.4222 53.713H47.4321C47.8047 53.713 48.1007 53.7998 48.3199 53.9736C48.561 54.1257 48.6816 54.3212 48.6816 54.5601V75.9662Z" fill="#EEF1CA"/>
</g>
<defs>
<filter id="filter0_d_26_48" x="0" y="0" width="127.074" height="136" filterUnits="userSpaceOnUse" color-interpolation-filters="sRGB">
<feFlood flood-opacity="0" result="BackgroundImageFix"/>
<feColorMatrix in="SourceAlpha" type="matrix" values="0 0 0 0 0 0 0 0 0 0 0 0 0 0 0 0 0 0 127 0" result="hardAlpha"/>
<feOffset dy="4"/>
<feGaussianBlur stdDeviation="2"/>
<feComposite in2="hardAlpha" operator="out"/>
<feColorMatrix type="matrix" values="0 0 0 0 0 0 0 0 0 0 0 0 0 0 0 0 0 0 0.25 0"/>
<feBlend mode="normal" in2="BackgroundImageFix" result="effect1_dropShadow_26_48"/>
<feBlend mode="normal" in="SourceGraphic" in2="effect1_dropShadow_26_48" result="shape"/>
</filter>
</defs>
</svg>
