<svg width="344" height="193" viewBox="0 0 344 193" fill="none" xmlns="http://www.w3.org/2000/svg">
<path d="M76.0483 93.3321C102.394 93.3321 123.751 72.439 123.751 46.6661C123.751 20.8931 102.394 3.05176e-05 76.0483 3.05176e-05C49.7026 3.05176e-05 28.3452 20.8931 28.3452 46.6661C28.3452 72.439 49.7026 93.3321 76.0483 93.3321Z" fill="#CE8E58"/>
<path d="M76.0483 72.5917C90.5575 72.5917 102.32 60.9844 102.32 46.6661C102.32 32.3478 90.5575 20.7406 76.0483 20.7406C61.5391 20.7406 49.777 32.3478 49.777 46.6661C49.777 60.9844 61.5391 72.5917 76.0483 72.5917Z" fill="#F5C071"/>
<path d="M267.552 93.3321C293.898 93.3321 315.255 72.439 315.255 46.6661C315.255 20.8931 293.898 3.05176e-05 267.552 3.05176e-05C241.206 3.05176e-05 219.849 20.8931 219.849 46.6661C219.849 72.439 241.206 93.3321 267.552 93.3321Z" fill="#CE8E58"/>
<path d="M267.552 72.5917C282.061 72.5917 293.823 60.9844 293.823 46.6661C293.823 32.3478 282.061 20.7406 267.552 20.7406C253.043 20.7406 241.281 32.3478 241.281 46.6661C241.281 60.9844 253.043 72.5917 267.552 72.5917Z" fill="#F5C071"/>
<path d="M315.255 159.701C315.255 122.847 300.177 87.5011 273.34 61.4413C246.501 35.3806 210.101 20.7405 172.146 20.7405C134.19 20.7405 97.7906 35.3806 70.952 61.4413C44.1142 87.5011 29.0365 122.847 29.0365 159.701H315.255Z" fill="#CE8E58"/>
<path d="M100.246 110.615C107.118 110.615 112.69 116.341 112.69 123.405C112.69 130.469 107.118 136.195 100.246 136.195C93.3727 136.195 87.8013 130.469 87.8013 123.405C87.8013 116.341 93.3727 110.615 100.246 110.615Z" fill="#673F31"/>
<path d="M243.354 110.615C250.227 110.615 255.799 116.341 255.799 123.405C255.799 130.469 250.227 136.195 243.354 136.195C236.482 136.195 230.91 130.469 230.91 123.405C230.91 116.341 236.482 110.615 243.354 110.615Z" fill="#673F31"/>
<path d="M214.318 159.701C214.318 154.89 213.218 150.125 211.082 145.679C208.945 141.234 205.813 137.194 201.865 133.792C197.917 130.389 193.23 127.691 188.071 125.849C182.912 124.008 177.384 123.06 171.8 123.06C166.217 123.06 160.688 124.008 155.529 125.849C150.371 127.691 145.684 130.389 141.735 133.792C137.787 137.194 134.655 141.234 132.519 145.679C130.382 150.125 129.282 154.89 129.282 159.701H171.8H214.318Z" fill="#E5AC67"/>
<path d="M172.146 143.992C175.505 143.992 178.522 143.158 180.684 141.837C182.853 140.511 184.09 138.747 184.09 136.887C184.09 135.027 182.854 133.262 180.684 131.936C178.522 130.615 175.505 129.782 172.146 129.782C168.786 129.782 165.768 130.615 163.606 131.936C161.437 133.262 160.201 135.027 160.201 136.887C160.201 138.747 161.437 140.511 163.606 141.837C165.768 143.158 168.786 143.992 172.146 143.992Z" fill="#673F31" stroke="#673F31"/>
<path d="M129.878 79.7728C130.699 87.5563 123.36 94.7102 113.488 95.7512C103.615 96.7913 94.9464 91.3249 94.1264 83.5405C93.3055 75.756 100.644 68.6021 110.517 67.562C120.39 66.521 129.058 71.9883 129.878 79.7728Z" fill="#BD7E50"/>
<path d="M214.131 79.821C213.31 87.6054 220.649 94.7593 230.522 95.7995C240.394 96.8405 249.063 91.3731 249.883 83.5887C250.703 75.8051 243.365 68.6513 233.492 67.6102C223.619 66.5701 214.951 72.0366 214.131 79.821Z" fill="#BD7E50"/>
<g opacity="0.85">
<path d="M91.8004 116.936C92.8257 115.295 95.2156 115.295 96.2399 116.936C97.1494 118.644 95.954 120.714 94.0202 120.781C92.0863 120.714 90.8918 118.644 91.8004 116.936Z" fill="#FFDB8B"/>
<path d="M91.8004 116.936C92.8257 115.295 95.2156 115.295 96.2399 116.936C97.1494 118.644 95.954 120.714 94.0202 120.781C92.0863 120.714 90.8918 118.644 91.8004 116.936Z" fill="#FBE1AB"/>
<g opacity="0.4" filter="url(#filter0_f_3_26)">
<path d="M91.8004 116.936C92.8257 115.295 95.2156 115.295 96.2399 116.936C97.1494 118.644 95.954 120.714 94.0202 120.781C92.0863 120.714 90.8918 118.644 91.8004 116.936Z" fill="#FFDB8B"/>
<path d="M91.8004 116.936C92.8257 115.295 95.2156 115.295 96.2399 116.936C97.1494 118.644 95.954 120.714 94.0202 120.781C92.0863 120.714 90.8918 118.644 91.8004 116.936Z" fill="#FFDB8B"/>
</g>
<path d="M234.125 116.936C235.151 115.295 237.54 115.295 238.565 116.936C239.473 118.644 238.279 120.714 236.345 120.781C234.411 120.714 233.217 118.644 234.125 116.936Z" fill="#FFDB8B"/>
<path d="M234.125 116.936C235.151 115.295 237.54 115.295 238.565 116.936C239.473 118.644 238.279 120.714 236.345 120.781C234.411 120.714 233.217 118.644 234.125 116.936Z" fill="#FBE1AB"/>
<g opacity="0.4" filter="url(#filter1_f_3_26)">
<path d="M233.684 116.936C234.804 115.248 237.282 115.248 238.402 116.936C239.353 118.619 238.178 120.711 236.245 120.774L236.042 120.781L235.841 120.774C233.908 120.711 232.733 118.619 233.684 116.936Z" fill="#FFDB8B"/>
<path d="M233.684 116.936C234.804 115.248 237.282 115.248 238.402 116.936C239.353 118.619 238.178 120.711 236.245 120.774L236.042 120.781L235.841 120.774C233.908 120.711 232.733 118.619 233.684 116.936Z" fill="#FFDB8B"/>
</g>
</g>
<path d="M172.146 139.652V150.022V139.652ZM159.01 152.787C165.233 154.516 169.726 151.751 171.454 150.022L159.01 152.787ZM185.508 152.787C179.285 154.516 174.791 151.751 173.064 150.022L185.508 152.787Z" fill="#673F31"/>
<path d="M172.146 139.652V150.022M159.01 152.787C165.233 154.516 169.726 151.751 171.454 150.022M185.508 152.787C179.285 154.516 174.791 151.751 173.064 150.022" stroke="#673F31" stroke-width="6" stroke-linecap="round"/>
<path d="M38.0241 192.938C59.0243 192.938 76.0483 178.08 76.0483 159.753C76.0483 141.426 59.0243 126.568 38.0241 126.568C17.024 126.568 0 141.426 0 159.753C0 178.08 17.024 192.938 38.0241 192.938Z" fill="#D5995C"/>
<mask id="mask0_3_26" style="mask-type:alpha" maskUnits="userSpaceOnUse" x="0" y="126" width="77" height="67">
<path d="M38.0241 192.938C59.0243 192.938 76.0483 178.08 76.0483 159.753C76.0483 141.426 59.0243 126.568 38.0241 126.568C17.024 126.568 0 141.426 0 159.753C0 178.08 17.024 192.938 38.0241 192.938Z" fill="#CD9160"/>
</mask>
<g mask="url(#mask0_3_26)">
<path d="M26.0248 173.062C26.5027 171.435 25.5705 169.729 23.9445 169.252C22.3176 168.774 20.6118 169.705 20.1338 171.332L23.0797 172.197L26.0248 173.062ZM55.9145 171.332C55.4366 169.705 53.7308 168.774 52.1039 169.252C50.4779 169.729 49.5465 171.435 50.0236 173.062L52.9686 172.197L55.9145 171.332ZM23.0797 172.197L20.1338 171.332C19.0209 175.125 17.929 184.727 21.4537 195.292L24.3654 194.32L27.278 193.349C24.1795 184.063 25.2363 175.747 26.0248 173.062L23.0797 172.197ZM52.9686 172.197L50.0236 173.062C50.812 175.747 51.8688 184.063 48.7703 193.349L51.6829 194.32L54.5946 195.292C58.1194 184.727 57.0275 175.125 55.9145 171.332L52.9686 172.197Z" fill="#B77A4C"/>
<g style="mix-blend-mode:lighten">
<path d="M38.0241 192.938C59.0243 192.938 76.0483 178.08 76.0483 159.753C76.0483 141.426 59.0243 126.568 38.0241 126.568C17.024 126.568 0 141.426 0 159.753C0 178.08 17.024 192.938 38.0241 192.938Z" fill="#F4BF76" fill-opacity="0.19"/>
</g>
</g>
<path d="M305.576 192.938C326.576 192.938 343.6 178.08 343.6 159.753C343.6 141.426 326.576 126.568 305.576 126.568C284.576 126.568 267.552 141.426 267.552 159.753C267.552 178.08 284.576 192.938 305.576 192.938Z" fill="#D5995C"/>
<mask id="mask1_3_26" style="mask-type:alpha" maskUnits="userSpaceOnUse" x="267" y="126" width="77" height="67">
<path d="M305.576 192.938C326.576 192.938 343.6 178.08 343.6 159.753C343.6 141.426 326.576 126.568 305.576 126.568C284.576 126.568 267.552 141.426 267.552 159.753C267.552 178.08 284.576 192.938 305.576 192.938Z" fill="#CD9160"/>
</mask>
<g mask="url(#mask1_3_26)">
<path d="M293.577 173.062C294.054 171.435 293.122 169.729 291.496 169.252C289.87 168.774 288.164 169.705 287.686 171.332L290.631 172.197L293.577 173.062ZM323.466 171.332C322.989 169.705 321.283 168.774 319.656 169.252C318.029 169.729 317.098 171.435 317.576 173.062L320.521 172.197L323.466 171.332ZM290.631 172.197L287.686 171.332C286.573 175.125 285.481 184.727 289.006 195.292L291.917 194.32L294.829 193.349C291.731 184.063 292.788 175.747 293.577 173.062L290.631 172.197ZM320.521 172.197L317.576 173.062C318.364 175.747 319.421 184.063 316.322 193.349L319.234 194.32L322.146 195.292C325.671 184.727 324.579 175.125 323.466 171.332L320.521 172.197Z" fill="#B77A4C"/>
<g style="mix-blend-mode:lighten">
<path d="M305.576 192.938C326.576 192.938 343.6 178.08 343.6 159.753C343.6 141.426 326.576 126.568 305.576 126.568C284.576 126.568 267.552 141.426 267.552 159.753C267.552 178.08 284.576 192.938 305.576 192.938Z" fill="#F4BF76" fill-opacity="0.19"/>
</g>
</g>
<defs>
<filter id="filter0_f_3_26" x="84.4906" y="108.705" width="19.0595" height="19.0755" filterUnits="userSpaceOnUse" color-interpolation-filters="sRGB">
<feFlood flood-opacity="0" result="BackgroundImageFix"/>
<feBlend mode="normal" in="SourceGraphic" in2="BackgroundImageFix" result="shape"/>
<feGaussianBlur stdDeviation="3.5" result="effect1_foregroundBlur_3_26"/>
</filter>
<filter id="filter1_f_3_26" x="226.348" y="108.67" width="19.3907" height="19.1104" filterUnits="userSpaceOnUse" color-interpolation-filters="sRGB">
<feFlood flood-opacity="0" result="BackgroundImageFix"/>
<feBlend mode="normal" in="SourceGraphic" in2="BackgroundImageFix" result="shape"/>
<feGaussianBlur stdDeviation="3.5" result="effect1_foregroundBlur_3_26"/>
</filter>
</defs>
</svg>
