<svg width="1530" height="370" viewBox="0 0 1530 370" fill="none" xmlns="http://www.w3.org/2000/svg">
<rect y="337" width="1530" height="33" fill="#D4D7E6"/>
<path d="M1530 0H0V337H1530V0Z" fill="#ADAAC6"/>
<mask id="mask0_5_78" style="mask-type:alpha" maskUnits="userSpaceOnUse" x="0" y="0" width="1530" height="337">
<path d="M1530 337V0H765H0V337H1530Z" fill="#FFCE5D"/>
</mask>
<g mask="url(#mask0_5_78)">
<path opacity="0.93" d="M256.395 100.243C286.236 66.6056 338.764 66.6055 368.605 100.243L379.98 113.066C393.973 128.838 413.957 137.992 435.04 138.286L449.957 138.494C497.709 139.16 532.507 184.471 521.837 231.021V231.021C516.617 253.795 522.268 278.01 537.233 295.953V295.953C568.718 333.703 555.853 391.042 511.258 411.721L505.669 414.312C485.404 423.71 470.382 441.652 464.693 463.254L462.438 471.816C450.768 516.133 402.431 539.714 360.321 521.633L342.091 513.805C323.197 505.693 301.803 505.693 282.91 513.805L264.679 521.633C222.569 539.714 174.232 516.133 162.562 471.816L160.307 463.254C154.618 441.652 139.596 423.71 119.331 414.312L113.742 411.721C69.147 391.042 56.2818 333.703 87.7672 295.953V295.953C102.732 278.01 108.383 253.795 103.163 231.021V231.021C92.4927 184.471 127.291 139.16 175.043 138.494L189.96 138.286C211.043 137.992 231.027 128.838 245.02 113.066L256.395 100.243Z" fill="#FFDC7D"/>
</g>
<path d="M218.048 270.332C244.394 270.332 265.751 249.439 265.751 223.666C265.751 197.893 244.394 177 218.048 177C191.703 177 170.345 197.893 170.345 223.666C170.345 249.439 191.703 270.332 218.048 270.332Z" fill="#CE8E58"/>
<path d="M218.048 249.592C232.558 249.592 244.32 237.984 244.32 223.666C244.32 209.348 232.558 197.741 218.048 197.741C203.539 197.741 191.777 209.348 191.777 223.666C191.777 237.984 203.539 249.592 218.048 249.592Z" fill="#F5C071"/>
<path d="M409.552 270.332C435.898 270.332 457.255 249.439 457.255 223.666C457.255 197.893 435.898 177 409.552 177C383.206 177 361.849 197.893 361.849 223.666C361.849 249.439 383.206 270.332 409.552 270.332Z" fill="#CE8E58"/>
<path d="M409.552 249.592C424.061 249.592 435.823 237.984 435.823 223.666C435.823 209.348 424.061 197.741 409.552 197.741C395.043 197.741 383.281 209.348 383.281 223.666C383.281 237.984 395.043 249.592 409.552 249.592Z" fill="#F5C071"/>
<path d="M457.255 336.701C457.255 299.847 442.177 264.501 415.34 238.441C388.501 212.381 352.101 197.74 314.146 197.74C276.19 197.74 239.791 212.381 212.952 238.441C186.114 264.501 171.036 299.847 171.036 336.701H457.255Z" fill="#CE8E58"/>
<path d="M242.246 287.615C249.118 287.615 254.69 293.341 254.69 300.405C254.69 307.469 249.118 313.195 242.246 313.195C235.373 313.195 229.801 307.469 229.801 300.405C229.801 293.341 235.373 287.615 242.246 287.615Z" fill="#673F31"/>
<path d="M385.354 287.615C392.227 287.615 397.799 293.341 397.799 300.405C397.799 307.469 392.227 313.195 385.354 313.195C378.482 313.195 372.91 307.469 372.91 300.405C372.91 293.341 378.482 287.615 385.354 287.615Z" fill="#673F31"/>
<path d="M356.318 336.701C356.318 331.89 355.218 327.125 353.082 322.679C350.945 318.234 347.813 314.194 343.865 310.792C339.917 307.389 335.23 304.691 330.071 302.849C324.912 301.008 319.384 300.06 313.8 300.06C308.217 300.06 302.688 301.008 297.529 302.849C292.371 304.691 287.684 307.389 283.735 310.792C279.787 314.194 276.655 318.234 274.519 322.679C272.382 327.125 271.282 331.89 271.282 336.701H313.8H356.318Z" fill="#E5AC67"/>
<path d="M314.146 320.992C317.505 320.992 320.522 320.158 322.684 318.837C324.853 317.511 326.09 315.747 326.09 313.887C326.09 312.027 324.854 310.262 322.684 308.936C320.522 307.615 317.505 306.782 314.146 306.782C310.786 306.782 307.768 307.615 305.606 308.936C303.437 310.262 302.201 312.027 302.201 313.887C302.201 315.747 303.437 317.511 305.606 318.837C307.768 320.158 310.786 320.992 314.146 320.992Z" fill="#673F31" stroke="#673F31"/>
<path d="M271.878 256.773C272.699 264.556 265.36 271.71 255.488 272.751C245.615 273.791 236.946 268.325 236.126 260.54C235.306 252.756 242.644 245.602 252.517 244.562C262.39 243.521 271.058 248.988 271.878 256.773Z" fill="#BD7E50"/>
<path d="M356.131 256.821C355.31 264.605 362.649 271.759 372.522 272.799C382.394 273.84 391.063 268.373 391.883 260.589C392.703 252.805 385.365 245.651 375.492 244.61C365.619 243.57 356.951 249.037 356.131 256.821Z" fill="#BD7E50"/>
<g opacity="0.85">
<path d="M233.8 293.936C234.826 292.295 237.216 292.295 238.24 293.936C239.149 295.644 237.954 297.714 236.02 297.781C234.086 297.714 232.892 295.644 233.8 293.936Z" fill="#FFDB8B"/>
<path d="M233.8 293.936C234.826 292.295 237.216 292.295 238.24 293.936C239.149 295.644 237.954 297.714 236.02 297.781C234.086 297.714 232.892 295.644 233.8 293.936Z" fill="#FBE1AB"/>
<g opacity="0.4" filter="url(#filter0_f_5_78)">
<path d="M233.8 293.936C234.826 292.295 237.216 292.295 238.24 293.936C239.149 295.644 237.954 297.714 236.02 297.781C234.086 297.714 232.892 295.644 233.8 293.936Z" fill="#FFDB8B"/>
<path d="M233.8 293.936C234.826 292.295 237.216 292.295 238.24 293.936C239.149 295.644 237.954 297.714 236.02 297.781C234.086 297.714 232.892 295.644 233.8 293.936Z" fill="#FFDB8B"/>
</g>
<path d="M376.125 293.936C377.151 292.295 379.54 292.295 380.565 293.936C381.473 295.644 380.279 297.714 378.345 297.781C376.411 297.714 375.217 295.644 376.125 293.936Z" fill="#FFDB8B"/>
<path d="M376.125 293.936C377.151 292.295 379.54 292.295 380.565 293.936C381.473 295.644 380.279 297.714 378.345 297.781C376.411 297.714 375.217 295.644 376.125 293.936Z" fill="#FBE1AB"/>
<g opacity="0.4" filter="url(#filter1_f_5_78)">
<path d="M375.684 293.936C376.804 292.248 379.282 292.248 380.402 293.936C381.353 295.619 380.178 297.711 378.245 297.774L378.042 297.781L377.841 297.774C375.908 297.711 374.733 295.619 375.684 293.936Z" fill="#FFDB8B"/>
<path d="M375.684 293.936C376.804 292.248 379.282 292.248 380.402 293.936C381.353 295.619 380.178 297.711 378.245 297.774L378.042 297.781L377.841 297.774C375.908 297.711 374.733 295.619 375.684 293.936Z" fill="#FFDB8B"/>
</g>
</g>
<path d="M314.146 316.652V327.022ZM301.01 329.787C307.233 331.516 311.726 328.751 313.454 327.022ZM327.508 329.787C321.285 331.516 316.791 328.751 315.064 327.022Z" fill="#673F31"/>
<path d="M314.146 316.652V327.022M301.01 329.787C307.233 331.516 311.726 328.751 313.454 327.022M327.508 329.787C321.285 331.516 316.791 328.751 315.064 327.022" stroke="#673F31" stroke-width="6" stroke-linecap="round"/>
<path d="M180.024 369.938C201.024 369.938 218.048 355.08 218.048 336.753C218.048 318.426 201.024 303.568 180.024 303.568C159.024 303.568 142 318.426 142 336.753C142 355.08 159.024 369.938 180.024 369.938Z" fill="#D5995C"/>
<mask id="mask1_5_78" style="mask-type:alpha" maskUnits="userSpaceOnUse" x="142" y="303" width="77" height="67">
<path d="M180.024 369.938C201.024 369.938 218.048 355.08 218.048 336.753C218.048 318.426 201.024 303.568 180.024 303.568C159.024 303.568 142 318.426 142 336.753C142 355.08 159.024 369.938 180.024 369.938Z" fill="#CD9160"/>
</mask>
<g mask="url(#mask1_5_78)">
<path d="M168.025 350.062C168.503 348.435 167.57 346.729 165.944 346.252C164.318 345.774 162.612 346.705 162.134 348.332L165.08 349.197L168.025 350.062ZM197.915 348.332C197.437 346.705 195.731 345.774 194.104 346.252C192.478 346.729 191.546 348.435 192.024 350.062L194.969 349.197L197.915 348.332ZM165.08 349.197L162.134 348.332C161.021 352.125 159.929 361.727 163.454 372.292L166.365 371.32L169.278 370.349C166.18 361.063 167.236 352.747 168.025 350.062L165.08 349.197ZM194.969 349.197L192.024 350.062C192.812 352.747 193.869 361.063 190.77 370.349L193.683 371.32L196.595 372.292C200.119 361.727 199.027 352.125 197.915 348.332L194.969 349.197Z" fill="#B77A4C"/>
<g style="mix-blend-mode:lighten">
<path d="M180.024 369.938C201.024 369.938 218.048 355.08 218.048 336.753C218.048 318.426 201.024 303.568 180.024 303.568C159.024 303.568 142 318.426 142 336.753C142 355.08 159.024 369.938 180.024 369.938Z" fill="#F4BF76" fill-opacity="0.19"/>
</g>
</g>
<path d="M447.576 369.938C468.576 369.938 485.6 355.08 485.6 336.753C485.6 318.426 468.576 303.568 447.576 303.568C426.576 303.568 409.552 318.426 409.552 336.753C409.552 355.08 426.576 369.938 447.576 369.938Z" fill="#D5995C"/>
<mask id="mask2_5_78" style="mask-type:alpha" maskUnits="userSpaceOnUse" x="409" y="303" width="77" height="67">
<path d="M447.576 369.938C468.576 369.938 485.6 355.08 485.6 336.753C485.6 318.426 468.576 303.568 447.576 303.568C426.576 303.568 409.552 318.426 409.552 336.753C409.552 355.08 426.576 369.938 447.576 369.938Z" fill="#CD9160"/>
</mask>
<g mask="url(#mask2_5_78)">
<path d="M435.577 350.062C436.054 348.435 435.122 346.729 433.496 346.252C431.87 345.774 430.164 346.705 429.686 348.332L432.631 349.197L435.577 350.062ZM465.466 348.332C464.989 346.705 463.283 345.774 461.656 346.252C460.029 346.729 459.098 348.435 459.576 350.062L462.521 349.197L465.466 348.332ZM432.631 349.197L429.686 348.332C428.573 352.125 427.481 361.727 431.006 372.292L433.917 371.32L436.829 370.349C433.731 361.063 434.788 352.747 435.577 350.062L432.631 349.197ZM462.521 349.197L459.576 350.062C460.364 352.747 461.421 361.063 458.322 370.349L461.234 371.32L464.146 372.292C467.671 361.727 466.579 352.125 465.466 348.332L462.521 349.197Z" fill="#B77A4C"/>
<g style="mix-blend-mode:lighten">
<path d="M447.576 369.938C468.576 369.938 485.6 355.08 485.6 336.753C485.6 318.426 468.576 303.568 447.576 303.568C426.576 303.568 409.552 318.426 409.552 336.753C409.552 355.08 426.576 369.938 447.576 369.938Z" fill="#F4BF76" fill-opacity="0.19"/>
</g>
</g>
<defs>
<filter id="filter0_f_5_78" x="226.491" y="285.705" width="19.0595" height="19.0755" filterUnits="userSpaceOnUse" color-interpolation-filters="sRGB">
<feFlood flood-opacity="0" result="BackgroundImageFix"/>
<feBlend mode="normal" in="SourceGraphic" in2="BackgroundImageFix" result="shape"/>
<feGaussianBlur stdDeviation="3.5" result="effect1_foregroundBlur_5_78"/>
</filter>
<filter id="filter1_f_5_78" x="368.348" y="285.67" width="19.3907" height="19.1104" filterUnits="userSpaceOnUse" color-interpolation-filters="sRGB">
<feFlood flood-opacity="0" result="BackgroundImageFix"/>
<feBlend mode="normal" in="SourceGraphic" in2="BackgroundImageFix" result="shape"/>
<feGaussianBlur stdDeviation="3.5" result="effect1_foregroundBlur_5_78"/>
</filter>
</defs>
</svg>
