<svg width="1530" height="348" viewBox="0 0 1530 348" fill="none" xmlns="http://www.w3.org/2000/svg">
<rect y="315" width="1530" height="33" fill="#D4D7E6"/>
<path d="M1530 0H0V315H1530V0Z" fill="#ADAAC6"/>
<mask id="mask0_5_78" style="mask-type:alpha" maskUnits="userSpaceOnUse" x="0" y="0" width="1530" height="315">
<path d="M1530 0H0V315H1530V0Z" fill="#FFCE5D"/>
</mask>
<g mask="url(#mask0_5_78)">
<path d="M256.395 78.2426C286.236 44.6056 338.764 44.6055 368.605 78.2425L379.98 91.0656C393.973 106.838 413.957 115.992 435.04 116.286L449.957 116.494C497.709 117.16 532.507 162.471 521.837 209.021C516.617 231.795 522.268 256.01 537.233 273.953C568.718 311.703 555.853 369.042 511.258 389.721L505.669 392.312C485.404 401.71 470.382 419.652 464.693 441.254L462.438 449.816C450.768 494.133 402.431 517.714 360.321 499.633L342.091 491.805C323.197 483.693 301.803 483.693 282.91 491.805L264.679 499.633C222.569 517.714 174.232 494.133 162.562 449.816L160.307 441.254C154.618 419.652 139.596 401.71 119.331 392.312L113.742 389.721C69.147 369.042 56.2818 311.703 87.7672 273.953C102.732 256.01 108.383 231.795 103.163 209.021C92.4927 162.471 127.291 117.16 175.043 116.494L189.96 116.286C211.042 115.992 231.027 106.838 245.02 91.0656L256.395 78.2426Z" fill="#FFDC7D"/>
</g>
<path d="M218.048 248.332C244.394 248.332 265.751 227.439 265.751 201.666C265.751 175.893 244.394 155 218.048 155C191.703 155 170.345 175.893 170.345 201.666C170.345 227.439 191.703 248.332 218.048 248.332Z" fill="#CE8E58"/>
<path d="M218.048 227.592C232.558 227.592 244.32 215.984 244.32 201.666C244.32 187.348 232.558 175.741 218.048 175.741C203.539 175.741 191.777 187.348 191.777 201.666C191.777 215.984 203.539 227.592 218.048 227.592Z" fill="#F5C071"/>
<path d="M409.552 248.332C435.898 248.332 457.255 227.439 457.255 201.666C457.255 175.893 435.898 155 409.552 155C383.206 155 361.849 175.893 361.849 201.666C361.849 227.439 383.206 248.332 409.552 248.332Z" fill="#CE8E58"/>
<path d="M409.552 227.592C424.061 227.592 435.823 215.984 435.823 201.666C435.823 187.348 424.061 175.741 409.552 175.741C395.043 175.741 383.281 187.348 383.281 201.666C383.281 215.984 395.043 227.592 409.552 227.592Z" fill="#F5C071"/>
<path d="M457.255 314.701C457.255 277.847 442.177 242.501 415.34 216.441C388.501 190.381 352.101 175.74 314.146 175.74C276.19 175.74 239.791 190.381 212.952 216.441C186.114 242.501 171.036 277.847 171.036 314.701H457.255Z" fill="#CE8E58"/>
<path d="M242.246 265.615C249.118 265.615 254.69 271.341 254.69 278.405C254.69 285.469 249.118 291.195 242.246 291.195C235.373 291.195 229.801 285.469 229.801 278.405C229.801 271.341 235.373 265.615 242.246 265.615Z" fill="#673F31"/>
<path d="M385.354 265.615C392.227 265.615 397.799 271.341 397.799 278.405C397.799 285.469 392.227 291.195 385.354 291.195C378.482 291.195 372.91 285.469 372.91 278.405C372.91 271.341 378.482 265.615 385.354 265.615Z" fill="#673F31"/>
<path d="M356.318 314.701C356.318 309.89 355.218 305.125 353.082 300.679C350.945 296.234 347.813 292.194 343.865 288.792C339.917 285.389 335.23 282.691 330.071 280.849C324.912 279.008 319.384 278.06 313.8 278.06C308.217 278.06 302.688 279.008 297.529 280.849C292.371 282.691 287.684 285.389 283.735 288.792C279.787 292.194 276.655 296.234 274.519 300.679C272.382 305.125 271.282 309.89 271.282 314.701H313.8H356.318Z" fill="#E5AC67"/>
<path d="M314.146 298.992C317.505 298.992 320.522 298.158 322.684 296.837C324.853 295.511 326.09 293.747 326.09 291.887C326.09 290.027 324.854 288.262 322.684 286.936C320.522 285.615 317.505 284.782 314.146 284.782C310.786 284.782 307.768 285.615 305.606 286.936C303.437 288.262 302.201 290.027 302.201 291.887C302.201 293.747 303.437 295.511 305.606 296.837C307.768 298.158 310.786 298.992 314.146 298.992Z" fill="#673F31" stroke="#673F31"/>
<path d="M271.878 234.773C272.699 242.556 265.36 249.71 255.488 250.751C245.615 251.791 236.946 246.325 236.126 238.54C235.306 230.756 242.644 223.602 252.517 222.562C262.39 221.521 271.058 226.988 271.878 234.773Z" fill="#BD7E50"/>
<path d="M356.131 234.821C355.31 242.605 362.649 249.759 372.522 250.799C382.394 251.84 391.063 246.373 391.883 238.589C392.703 230.805 385.365 223.651 375.492 222.61C365.619 221.57 356.951 227.037 356.131 234.821Z" fill="#BD7E50"/>
<g opacity="0.85">
<path d="M233.8 271.936C234.826 270.295 237.216 270.295 238.24 271.936C239.149 273.644 237.954 275.714 236.02 275.781C234.086 275.714 232.892 273.644 233.8 271.936Z" fill="#FFDB8B"/>
<path d="M233.8 271.936C234.826 270.295 237.216 270.295 238.24 271.936C239.149 273.644 237.954 275.714 236.02 275.781C234.086 275.714 232.892 273.644 233.8 271.936Z" fill="#FBE1AB"/>
<g opacity="0.4" filter="url(#filter0_f_5_78)">
<path d="M233.8 271.936C234.826 270.295 237.216 270.295 238.24 271.936C239.149 273.644 237.954 275.714 236.02 275.781C234.086 275.714 232.892 273.644 233.8 271.936Z" fill="#FFDB8B"/>
<path d="M233.8 271.936C234.826 270.295 237.216 270.295 238.24 271.936C239.149 273.644 237.954 275.714 236.02 275.781C234.086 275.714 232.892 273.644 233.8 271.936Z" fill="#FFDB8B"/>
</g>
<path d="M376.125 271.936C377.151 270.295 379.54 270.295 380.565 271.936C381.473 273.644 380.279 275.714 378.345 275.781C376.411 275.714 375.217 273.644 376.125 271.936Z" fill="#FFDB8B"/>
<path d="M376.125 271.936C377.151 270.295 379.54 270.295 380.565 271.936C381.473 273.644 380.279 275.714 378.345 275.781C376.411 275.714 375.217 273.644 376.125 271.936Z" fill="#FBE1AB"/>
<g opacity="0.4" filter="url(#filter1_f_5_78)">
<path d="M375.684 271.936C376.804 270.248 379.282 270.248 380.402 271.936C381.353 273.619 380.178 275.711 378.245 275.774L378.042 275.781L377.841 275.774C375.908 275.711 374.733 273.619 375.684 271.936Z" fill="#FFDB8B"/>
<path d="M375.684 271.936C376.804 270.248 379.282 270.248 380.402 271.936C381.353 273.619 380.178 275.711 378.245 275.774L378.042 275.781L377.841 275.774C375.908 275.711 374.733 273.619 375.684 271.936Z" fill="#FFDB8B"/>
</g>
</g>
<path d="M314.146 294.652V305.022V294.652ZM301.01 307.787C307.233 309.516 311.726 306.751 313.454 305.022L301.01 307.787ZM327.508 307.787C321.285 309.516 316.791 306.751 315.064 305.022L327.508 307.787Z" fill="#673F31"/>
<path d="M314.146 294.652V305.022M301.01 307.787C307.233 309.516 311.726 306.751 313.454 305.022M327.508 307.787C321.285 309.516 316.791 306.751 315.064 305.022" stroke="#673F31" stroke-width="6" stroke-linecap="round"/>
<path d="M180.024 347.938C201.024 347.938 218.048 333.08 218.048 314.753C218.048 296.426 201.024 281.568 180.024 281.568C159.024 281.568 142 296.426 142 314.753C142 333.08 159.024 347.938 180.024 347.938Z" fill="#D5995C"/>
<mask id="mask1_5_78" style="mask-type:alpha" maskUnits="userSpaceOnUse" x="142" y="281" width="77" height="67">
<path d="M180.024 347.938C201.024 347.938 218.048 333.08 218.048 314.753C218.048 296.426 201.024 281.568 180.024 281.568C159.024 281.568 142 296.426 142 314.753C142 333.08 159.024 347.938 180.024 347.938Z" fill="#CD9160"/>
</mask>
<g mask="url(#mask1_5_78)">
<path d="M168.025 328.062C168.503 326.435 167.57 324.729 165.944 324.252C164.318 323.774 162.612 324.705 162.134 326.332L165.08 327.197L168.025 328.062ZM197.915 326.332C197.437 324.705 195.731 323.774 194.104 324.252C192.478 324.729 191.546 326.435 192.024 328.062L194.969 327.197L197.915 326.332ZM165.08 327.197L162.134 326.332C161.021 330.125 159.929 339.727 163.454 350.292L166.365 349.32L169.278 348.349C166.18 339.063 167.236 330.747 168.025 328.062L165.08 327.197ZM194.969 327.197L192.024 328.062C192.812 330.747 193.869 339.063 190.77 348.349L193.683 349.32L196.595 350.292C200.119 339.727 199.027 330.125 197.915 326.332L194.969 327.197Z" fill="#B77A4C"/>
<g style="mix-blend-mode:lighten">
<path d="M180.024 347.938C201.024 347.938 218.048 333.08 218.048 314.753C218.048 296.426 201.024 281.568 180.024 281.568C159.024 281.568 142 296.426 142 314.753C142 333.08 159.024 347.938 180.024 347.938Z" fill="#F4BF76" fill-opacity="0.19"/>
</g>
</g>
<path d="M447.576 347.938C468.576 347.938 485.6 333.08 485.6 314.753C485.6 296.426 468.576 281.568 447.576 281.568C426.576 281.568 409.552 296.426 409.552 314.753C409.552 333.08 426.576 347.938 447.576 347.938Z" fill="#D5995C"/>
<mask id="mask2_5_78" style="mask-type:alpha" maskUnits="userSpaceOnUse" x="409" y="281" width="77" height="67">
<path d="M447.576 347.938C468.576 347.938 485.6 333.08 485.6 314.753C485.6 296.426 468.576 281.568 447.576 281.568C426.576 281.568 409.552 296.426 409.552 314.753C409.552 333.08 426.576 347.938 447.576 347.938Z" fill="#CD9160"/>
</mask>
<g mask="url(#mask2_5_78)">
<path d="M435.577 328.062C436.054 326.435 435.122 324.729 433.496 324.252C431.87 323.774 430.164 324.705 429.686 326.332L432.631 327.197L435.577 328.062ZM465.466 326.332C464.989 324.705 463.283 323.774 461.656 324.252C460.029 324.729 459.098 326.435 459.576 328.062L462.521 327.197L465.466 326.332ZM432.631 327.197L429.686 326.332C428.573 330.125 427.481 339.727 431.006 350.292L433.917 349.32L436.829 348.349C433.731 339.063 434.788 330.747 435.577 328.062L432.631 327.197ZM462.521 327.197L459.576 328.062C460.364 330.747 461.421 339.063 458.322 348.349L461.234 349.32L464.146 350.292C467.671 339.727 466.579 330.125 465.466 326.332L462.521 327.197Z" fill="#B77A4C"/>
<g style="mix-blend-mode:lighten">
<path d="M447.576 347.938C468.576 347.938 485.6 333.08 485.6 314.753C485.6 296.426 468.576 281.568 447.576 281.568C426.576 281.568 409.552 296.426 409.552 314.753C409.552 333.08 426.576 347.938 447.576 347.938Z" fill="#F4BF76" fill-opacity="0.19"/>
</g>
</g>
<defs>
<filter id="filter0_f_5_78" x="226.491" y="263.705" width="19.0595" height="19.0755" filterUnits="userSpaceOnUse" color-interpolation-filters="sRGB">
<feFlood flood-opacity="0" result="BackgroundImageFix"/>
<feBlend mode="normal" in="SourceGraphic" in2="BackgroundImageFix" result="shape"/>
<feGaussianBlur stdDeviation="3.5" result="effect1_foregroundBlur_5_78"/>
</filter>
<filter id="filter1_f_5_78" x="368.348" y="263.67" width="19.3907" height="19.1104" filterUnits="userSpaceOnUse" color-interpolation-filters="sRGB">
<feFlood flood-opacity="0" result="BackgroundImageFix"/>
<feBlend mode="normal" in="SourceGraphic" in2="BackgroundImageFix" result="shape"/>
<feGaussianBlur stdDeviation="3.5" result="effect1_foregroundBlur_5_78"/>
</filter>
</defs>
</svg>
