<svg width="111" height="32" viewBox="0 0 111 32" fill="none" xmlns="http://www.w3.org/2000/svg">
<path d="M16.3816 11.8066V24.1641C15.8426 24.6328 15.1219 25.0254 14.2195 25.3418C13.3172 25.6582 12.2215 25.8164 10.9324 25.8164C9.64336 25.8164 8.54765 25.5293 7.64531 24.9551C6.62578 24.334 6.11601 23.4551 6.11601 22.3184V10.998H2.02031C1.17656 9.79102 0.754684 8.47266 0.754684 7.04297C0.754684 6.07031 0.907028 5.22656 1.21172 4.51172C1.52812 3.78516 1.91484 3.22266 2.37187 2.82422H20.5477C20.8875 3.35156 21.1687 3.99023 21.3914 4.74023C21.6141 5.49023 21.7254 6.23438 21.7254 6.97266C21.7254 8.35547 21.4207 9.375 20.8113 10.0312C20.202 10.6758 19.3816 10.998 18.3504 10.998H13.2C13.1648 11.0801 13.1473 11.168 13.1473 11.2617C13.1473 11.4727 13.2703 11.6133 13.5164 11.6836C13.7742 11.7656 14.325 11.8066 15.1687 11.8066H16.3816ZM35.141 15.709V18.7852C35.223 18.8672 35.3578 18.9082 35.5453 18.9082C35.7328 18.9082 35.8676 18.8438 35.9496 18.7148C36.0316 18.5859 36.0726 18.3633 36.0726 18.0469V15.5332C36.0726 14.4082 36.0258 13.6641 35.932 13.3008C35.8383 12.9258 35.6625 12.7383 35.4047 12.7383C35.2406 12.7383 35.1 12.7969 34.9828 12.9141C35.0883 14.0742 35.141 15.0059 35.141 15.709ZM28.5668 23.4961C26.6449 21.6445 25.684 19.1367 25.684 15.9727C25.684 12.7969 26.5863 10.2949 28.391 8.4668C30.2074 6.62695 32.5863 5.70703 35.5277 5.70703C38.4691 5.70703 40.848 6.66211 42.6644 8.57227C44.4691 10.4824 45.3715 12.9727 45.3715 16.043C45.3715 19.1016 44.4984 21.5332 42.7523 23.3379C41.018 25.1426 38.6566 26.0449 35.6684 26.0449C32.6801 26.0449 30.3129 25.1953 28.5668 23.4961ZM60.2637 16.623V17.0273C60.2637 17.2148 60.2695 17.3496 60.2812 17.4316C60.3984 17.4902 60.5273 17.5195 60.668 17.5195C61.0078 17.5195 61.1777 17.2617 61.1777 16.7461C61.1777 15.0234 61.2715 13.2363 61.459 11.3848C61.6582 9.52148 61.8691 8.08594 62.0918 7.07812C63.041 6.38672 64.3066 6.04102 65.8887 6.04102C67.4707 6.04102 68.6895 6.35156 69.5449 6.97266C70.4121 7.58203 70.8457 8.32031 70.8457 9.1875C70.8457 9.55078 70.6289 11.0508 70.1953 13.6875C69.7148 16.3711 69.0996 19.1953 68.3496 22.1602C68.1973 22.7578 67.9219 23.5957 67.5234 24.6738C67.1367 25.752 66.7207 26.6484 66.2754 27.3633C64.8809 29.5781 63.1582 30.9492 61.1074 31.4766C60.1465 31.7227 59.1797 31.8457 58.207 31.8457C56.3203 31.8457 54.8613 31.377 53.8301 30.4395C52.8809 29.5957 52.4062 28.5469 52.4062 27.293C52.4062 26.0508 52.7754 24.8789 53.5137 23.7773C53.6895 23.7305 54.0117 23.707 54.4805 23.707C54.9492 23.707 55.5352 23.7656 56.2383 23.8828C58.1836 24.2461 59.1738 24.4277 59.209 24.4277C59.291 24.4395 59.3789 24.457 59.4727 24.4805C59.5781 24.4922 59.7129 24.498 59.877 24.498C60.041 24.498 60.1816 24.4512 60.2988 24.3574C60.416 24.2637 60.4746 24.0762 60.4746 23.7949L56.3262 23.0039C55.3066 22.582 54.4219 21.6973 53.6719 20.3496C52.7461 18.6855 52.1191 16.4297 51.791 13.582C51.0176 12.5742 50.6309 11.3672 50.6309 9.96094C50.6309 8.55469 50.9824 7.33008 51.6855 6.28711H56.2031C57.7148 6.28711 58.8457 6.7207 59.5957 7.58789C60.1465 8.23242 60.498 9.17578 60.6504 10.418C60.3926 12.457 60.2637 14.5254 60.2637 16.623ZM93.8238 10.7871C93.8238 11.1035 93.7769 11.5664 93.6832 12.1758C93.5894 12.7734 93.4781 13.2539 93.3492 13.6172C92.2594 15.1172 90.9527 16.3828 89.4293 17.4141C87.9293 17.4844 86.8277 17.6367 86.1246 17.8711C85.4332 18.1055 85.0875 18.3691 85.0875 18.6621C85.0875 18.8496 85.1519 18.9902 85.2809 19.084C85.773 18.8145 86.4527 18.6035 87.3199 18.4512C88.1871 18.2871 89.0191 18.2051 89.816 18.2051H93.2086C93.5133 18.7324 93.7594 19.3242 93.9469 19.9805C94.1344 20.625 94.2281 21.1934 94.2281 21.6855C94.2281 23.0449 93.859 24.0527 93.1207 24.709C92.5348 25.2363 91.732 25.5 90.7125 25.5H78.1793C77.1363 24.4102 76.6148 22.7109 76.6148 20.4023C76.6148 19.5586 76.7672 18.5566 77.0719 17.3965C78.1383 16.2129 79.65 14.8711 81.607 13.3711C81.9937 13.0664 82.4273 12.709 82.9078 12.2988C82.8375 12.0293 82.6793 11.8945 82.4332 11.8945C82.3863 11.8945 82.3043 11.9062 82.1871 11.9297C81.8473 12.0352 81.1383 12.5918 80.0602 13.5996H77.8805C77.1891 12.4629 76.8434 11.2441 76.8434 9.94336C76.8434 9.12305 76.9723 8.39648 77.2301 7.76367C77.4879 7.13086 77.8043 6.63867 78.1793 6.28711H92.6812C93.443 7.40039 93.8238 8.90039 93.8238 10.7871ZM107.907 15.2168C107.298 14.9473 106.759 14.8125 106.29 14.8125C105.821 14.8125 105.587 15.0293 105.587 15.4629V15.5332C106.923 15.627 108.054 16.166 108.98 17.1504C109.905 18.123 110.368 19.2949 110.368 20.666C110.368 22.0254 109.87 23.2031 108.874 24.1992C107.866 25.1836 106.665 25.6758 105.271 25.6758C103.876 25.6758 102.681 25.1836 101.685 24.1992C100.7 23.2031 100.208 22.0137 100.208 20.6309C100.208 19.6934 100.443 18.832 100.911 18.0469C101.392 17.25 102.025 16.623 102.81 16.166C102.107 14.9473 101.544 13.5469 101.122 11.9648C100.7 10.3828 100.489 8.74219 100.489 7.04297V1.3125C100.982 0.960938 101.62 0.673828 102.405 0.451172C103.191 0.228516 103.987 0.117188 104.796 0.117188C106.554 0.117188 107.82 0.5625 108.593 1.45312C109.378 2.33203 109.771 3.82031 109.771 5.91797V7.04297C109.771 9.75 109.15 12.4746 107.907 15.2168Z" fill="#FFE9A3"/>
</svg>
